<?xml version="1.0" encoding="utf-8"?>
<!-- Generator: Adobe Illustrator 24.1.1, SVG Export Plug-In . SVG Version: 6.00 Build 0)  -->
<svg version="1.1" id="Layer_1" xmlns="http://www.w3.org/2000/svg" xmlns:xlink="http://www.w3.org/1999/xlink" x="0px" y="0px"
	 viewBox="0 0 400 350" style="enable-background:new 0 0 400 350;" xml:space="preserve">
<style type="text/css">
	.st0{fill:none;stroke:#3DA9B7;stroke-width:2;stroke-miterlimit:10;stroke-dasharray:7,7;}
	.st1{fill:#B9F8FF;}
	.st2{fill:#5E8AB4;}
	.st3{fill:#FFFFFF;}
	.st4{fill:#DCDCDC;}
	.st5{fill:#005793;}
	.st6{fill:#375A64;}
	.st7{fill:#1A2E35;}
	.st8{fill:#FFC800;}
	.st9{opacity:0.1;}
	.st10{fill:#ECECEC;}
	.st11{fill:#C8C8C8;}
	.st12{fill:#0A9C81;}
	.st13{opacity:0.1;fill:#005793;}
	.st14{fill:#EBFCFF;}
</style>
<g>
	<path class="st0" d="M329.7,296.83c12.98-4.21,2.45-31.95,24.84-47.6c11.27-7.88,26.49-16.04,31.26-28.26
		c4.91-12.59,2.69-31.75-6.34-41.44c-6.22-6.67-12.1-18.41-11.41-27.76c0.37-5,14.78-23.72-7.86-49.14
		c-9.82-11.02-38.69-12.72-51.27-23.32c-4.14-3.49-5.49-9.57-5.49-15.18c0-16.33,1.48-39.94-21.5-34.44
		c-16.29,3.89-29.5,14.91-44.49,22.02c-18.89,8.97-75.25,27.87-90.22,2.62c-3.95-6.66-0.19-17.94,7.21-17.61
		c6.68,0.3,10.12,9.75,7.53,16.3c-4.67,11.79-18.76,16.01-28.71,17.69c-22.94,3.86-47.22,5.37-69.18,15.58
		c-12.45,5.79-24.52,14.69-32.57,27.37c-3.37,5.31-8.12,13.98-8.32,20.8c-0.25,8.47,6.2,16.49,8.3,24.31
		c3.16,11.77-0.15,24.56-4.76,35.66c-4.61,11.1-10.59,21.61-13.22,33.55c-3.23,14.7,3.94,31.02,9.5,44.75
		c5.56,13.73,20.72,22.37,30.49,32.46"/>
	<path class="st1" d="M39.04,247.5c15.63,0.23,19.16,8.24,41.59,5.93c7.65-0.79,25.54-7.81,31.84-12.66
		c15.74-12.12,31.18-20.13,45.61-14.67c7.13,2.7,11.23,8.89,33.12,8.89c5.24,0,19.75-11.18,22.83-14.16
		c7.48-7.24,25.88-18.27,32.32-18.03c9.79,0.37,51.69,25.49,58.46,36.25c5.01,7.97,18.88,15.49,26.46,15.52
		c8.62,0.03,52.64,1.45,52.64,38.72c0,37.9-28.52,37.83-57.29,37.65c-15.61-0.1-242.46,0.16-261.76,0
		c-14.16-0.12-55.26-0.95-52.84-50.3C13.12,258.57,21.49,247.24,39.04,247.5z"/>
	<path class="st2" d="M38.7,335h327.01c0.87,0,1.57-0.7,1.57-1.57v-0.2c0-0.87-0.7-1.57-1.57-1.57H38.7c-0.87,0-1.57,0.7-1.57,1.57
		v0.2C37.13,334.3,37.83,335,38.7,335z"/>
	<g>
		<g>
			<rect x="93.68" y="59.4" class="st3" width="212.81" height="32.26"/>
			<path class="st4" d="M306.86,92.01H93.32V59.03h213.53V92.01z M94.04,91.29h212.09V59.76H94.04V91.29z"/>
		</g>
		<g>
			<g>
				<g>
					<path class="st5" d="M112.47,68.14c0.45,1.23,0.68,2.46,0.85,3.69c0.16,1.23,0.23,2.46,0.23,3.69c0,1.23-0.07,2.46-0.23,3.69
						c-0.17,1.23-0.4,2.46-0.85,3.69c-0.45-1.23-0.68-2.46-0.85-3.69c-0.16-1.23-0.23-2.46-0.23-3.69c0-1.23,0.08-2.46,0.23-3.69
						C111.79,70.6,112.02,69.37,112.47,68.14z"/>
					<path class="st5" d="M119.86,75.52c-1.23,0.45-2.46,0.68-3.69,0.85c-1.23,0.16-2.46,0.23-3.69,0.23
						c-1.23,0-2.46-0.07-3.69-0.23c-1.23-0.17-2.46-0.4-3.69-0.85c1.23-0.45,2.46-0.68,3.69-0.85c1.23-0.16,2.46-0.23,3.69-0.23
						c1.23,0,2.46,0.08,3.69,0.23C117.4,74.84,118.63,75.08,119.86,75.52z"/>
					<path class="st5" d="M117.7,70.3c-0.55,1.19-1.26,2.22-2.01,3.21c-0.76,0.98-1.58,1.91-2.45,2.78
						c-0.87,0.87-1.79,1.69-2.77,2.45c-0.99,0.75-2.02,1.46-3.21,2.01c0.55-1.19,1.26-2.22,2.01-3.21c0.76-0.98,1.58-1.91,2.45-2.77
						c0.87-0.87,1.79-1.69,2.78-2.45C115.47,71.56,116.51,70.85,117.7,70.3z"/>
					<path class="st5" d="M117.7,80.75c-1.19-0.55-2.22-1.26-3.21-2.01c-0.98-0.76-1.91-1.58-2.78-2.45
						c-0.87-0.87-1.69-1.79-2.45-2.77c-0.75-0.99-1.46-2.02-2.01-3.21c1.19,0.55,2.22,1.26,3.21,2.01c0.98,0.76,1.91,1.58,2.77,2.45
						c0.87,0.87,1.69,1.79,2.45,2.78C116.44,78.52,117.14,79.56,117.7,80.75z"/>
				</g>
			</g>
			<g>
				<g>
					<path class="st5" d="M141.27,68.14c0.45,1.23,0.68,2.46,0.85,3.69c0.16,1.23,0.23,2.46,0.23,3.69c0,1.23-0.07,2.46-0.23,3.69
						c-0.17,1.23-0.4,2.46-0.85,3.69c-0.45-1.23-0.68-2.46-0.85-3.69c-0.16-1.23-0.23-2.46-0.23-3.69c0-1.23,0.08-2.46,0.23-3.69
						C140.59,70.6,140.82,69.37,141.27,68.14z"/>
					<path class="st5" d="M148.65,75.52c-1.23,0.45-2.46,0.68-3.69,0.85c-1.23,0.16-2.46,0.23-3.69,0.23
						c-1.23,0-2.46-0.07-3.69-0.23c-1.23-0.17-2.46-0.4-3.69-0.85c1.23-0.45,2.46-0.68,3.69-0.85c1.23-0.16,2.46-0.23,3.69-0.23
						c1.23,0,2.46,0.08,3.69,0.23C146.19,74.84,147.42,75.08,148.65,75.52z"/>
					<path class="st5" d="M146.49,70.3c-0.55,1.19-1.26,2.22-2.01,3.21c-0.76,0.98-1.58,1.91-2.45,2.78
						c-0.87,0.87-1.79,1.69-2.77,2.45c-0.99,0.75-2.02,1.46-3.21,2.01c0.55-1.19,1.26-2.22,2.01-3.21c0.76-0.98,1.58-1.91,2.45-2.77
						c0.87-0.87,1.79-1.69,2.78-2.45C144.27,71.56,145.3,70.85,146.49,70.3z"/>
					<path class="st5" d="M146.49,80.75c-1.19-0.55-2.22-1.26-3.21-2.01c-0.98-0.76-1.91-1.58-2.78-2.45
						c-0.87-0.87-1.69-1.79-2.45-2.77c-0.75-0.99-1.46-2.02-2.01-3.21c1.19,0.55,2.22,1.26,3.21,2.01c0.98,0.76,1.91,1.58,2.77,2.45
						c0.87,0.87,1.69,1.79,2.45,2.78C145.23,78.52,145.94,79.56,146.49,80.75z"/>
				</g>
			</g>
			<g>
				<g>
					<path class="st5" d="M170.06,68.14c0.45,1.23,0.68,2.46,0.85,3.69c0.16,1.23,0.23,2.46,0.23,3.69c0,1.23-0.07,2.46-0.23,3.69
						c-0.17,1.23-0.4,2.46-0.85,3.69c-0.45-1.23-0.68-2.46-0.85-3.69c-0.16-1.23-0.23-2.46-0.23-3.69c0-1.23,0.08-2.46,0.23-3.69
						C169.38,70.6,169.62,69.37,170.06,68.14z"/>
					<path class="st5" d="M177.45,75.52c-1.23,0.45-2.46,0.68-3.69,0.85c-1.23,0.16-2.46,0.23-3.69,0.23
						c-1.23,0-2.46-0.07-3.69-0.23c-1.23-0.17-2.46-0.4-3.69-0.85c1.23-0.45,2.46-0.68,3.69-0.85c1.23-0.16,2.46-0.23,3.69-0.23
						c1.23,0,2.46,0.08,3.69,0.23C174.99,74.84,176.22,75.08,177.45,75.52z"/>
					<path class="st5" d="M175.29,70.3c-0.55,1.19-1.26,2.22-2.01,3.21c-0.76,0.98-1.58,1.91-2.45,2.78
						c-0.87,0.87-1.79,1.69-2.77,2.45c-0.99,0.75-2.02,1.46-3.21,2.01c0.55-1.19,1.26-2.22,2.01-3.21c0.76-0.98,1.58-1.91,2.45-2.77
						c0.87-0.87,1.79-1.69,2.78-2.45C173.06,71.56,174.1,70.85,175.29,70.3z"/>
					<path class="st5" d="M175.29,80.75c-1.19-0.55-2.22-1.26-3.21-2.01c-0.98-0.76-1.91-1.58-2.78-2.45
						c-0.87-0.87-1.69-1.79-2.45-2.77c-0.75-0.99-1.46-2.02-2.01-3.21c1.19,0.55,2.22,1.26,3.21,2.01c0.98,0.76,1.91,1.58,2.77,2.45
						c0.87,0.87,1.69,1.79,2.45,2.78C174.03,78.52,174.73,79.56,175.29,80.75z"/>
				</g>
			</g>
			<g>
				<g>
					<path class="st5" d="M198.86,68.14c0.45,1.23,0.68,2.46,0.85,3.69c0.16,1.23,0.23,2.46,0.23,3.69c0,1.23-0.07,2.46-0.23,3.69
						c-0.17,1.23-0.4,2.46-0.85,3.69c-0.45-1.23-0.68-2.46-0.85-3.69c-0.16-1.23-0.23-2.46-0.23-3.69c0-1.23,0.08-2.46,0.23-3.69
						C198.18,70.6,198.41,69.37,198.86,68.14z"/>
					<path class="st5" d="M206.24,75.52c-1.23,0.45-2.46,0.68-3.69,0.85c-1.23,0.16-2.46,0.23-3.69,0.23
						c-1.23,0-2.46-0.07-3.69-0.23c-1.23-0.17-2.46-0.4-3.69-0.85c1.23-0.45,2.46-0.68,3.69-0.85c1.23-0.16,2.46-0.23,3.69-0.23
						c1.23,0,2.46,0.08,3.69,0.23C203.78,74.84,205.01,75.08,206.24,75.52z"/>
					<path class="st5" d="M204.08,70.3c-0.55,1.19-1.26,2.22-2.01,3.21c-0.76,0.98-1.58,1.91-2.45,2.78
						c-0.87,0.87-1.79,1.69-2.77,2.45c-0.99,0.75-2.02,1.46-3.21,2.01c0.55-1.19,1.26-2.22,2.01-3.21c0.76-0.98,1.58-1.91,2.45-2.77
						c0.87-0.87,1.79-1.69,2.78-2.45C201.86,71.56,202.89,70.85,204.08,70.3z"/>
					<path class="st5" d="M204.08,80.75c-1.19-0.55-2.22-1.26-3.21-2.01c-0.98-0.76-1.91-1.58-2.78-2.45
						c-0.87-0.87-1.69-1.79-2.45-2.77c-0.75-0.99-1.46-2.02-2.01-3.21c1.19,0.55,2.22,1.26,3.21,2.01c0.98,0.76,1.91,1.58,2.77,2.45
						c0.87,0.87,1.69,1.79,2.45,2.78C202.82,78.52,203.53,79.56,204.08,80.75z"/>
				</g>
			</g>
			<g>
				<g>
					<path class="st5" d="M227.65,68.14c0.45,1.23,0.68,2.46,0.85,3.69c0.16,1.23,0.23,2.46,0.23,3.69c0,1.23-0.07,2.46-0.23,3.69
						c-0.17,1.23-0.4,2.46-0.85,3.69c-0.45-1.23-0.68-2.46-0.85-3.69c-0.16-1.23-0.23-2.46-0.23-3.69c0-1.23,0.08-2.46,0.23-3.69
						C226.97,70.6,227.21,69.37,227.65,68.14z"/>
					<path class="st5" d="M235.04,75.52c-1.23,0.45-2.46,0.68-3.69,0.85c-1.23,0.16-2.46,0.23-3.69,0.23
						c-1.23,0-2.46-0.07-3.69-0.23c-1.23-0.17-2.46-0.4-3.69-0.85c1.23-0.45,2.46-0.68,3.69-0.85c1.23-0.16,2.46-0.23,3.69-0.23
						c1.23,0,2.46,0.08,3.69,0.23C232.58,74.84,233.81,75.08,235.04,75.52z"/>
					<path class="st5" d="M232.88,70.3c-0.55,1.19-1.26,2.22-2.01,3.21c-0.76,0.98-1.58,1.91-2.45,2.78
						c-0.87,0.87-1.79,1.69-2.77,2.45c-0.99,0.75-2.02,1.46-3.21,2.01c0.55-1.19,1.26-2.22,2.01-3.21c0.76-0.98,1.58-1.91,2.45-2.77
						c0.87-0.87,1.79-1.69,2.78-2.45C230.65,71.56,231.69,70.85,232.88,70.3z"/>
					<path class="st5" d="M232.88,80.75c-1.19-0.55-2.22-1.26-3.21-2.01c-0.98-0.76-1.91-1.58-2.78-2.45
						c-0.87-0.87-1.69-1.79-2.45-2.77c-0.75-0.99-1.46-2.02-2.01-3.21c1.19,0.55,2.22,1.26,3.21,2.01c0.98,0.76,1.91,1.58,2.77,2.45
						c0.87,0.87,1.69,1.79,2.45,2.78C231.62,78.52,232.32,79.56,232.88,80.75z"/>
				</g>
			</g>
			<g>
				<g>
					<path class="st5" d="M256.45,68.14c0.45,1.23,0.68,2.46,0.85,3.69c0.16,1.23,0.23,2.46,0.23,3.69c0,1.23-0.07,2.46-0.23,3.69
						c-0.17,1.23-0.4,2.46-0.85,3.69c-0.45-1.23-0.68-2.46-0.85-3.69c-0.16-1.23-0.23-2.46-0.23-3.69c0-1.23,0.08-2.46,0.23-3.69
						C255.77,70.6,256,69.37,256.45,68.14z"/>
					<path class="st5" d="M263.84,75.52c-1.23,0.45-2.46,0.68-3.69,0.85c-1.23,0.16-2.46,0.23-3.69,0.23
						c-1.23,0-2.46-0.07-3.69-0.23c-1.23-0.17-2.46-0.4-3.69-0.85c1.23-0.45,2.46-0.68,3.69-0.85c1.23-0.16,2.46-0.23,3.69-0.23
						c1.23,0,2.46,0.08,3.69,0.23C261.37,74.84,262.6,75.08,263.84,75.52z"/>
					<path class="st5" d="M261.67,70.3c-0.55,1.19-1.26,2.22-2.01,3.21c-0.76,0.98-1.58,1.91-2.45,2.78
						c-0.87,0.87-1.79,1.69-2.77,2.45c-0.99,0.75-2.02,1.46-3.21,2.01c0.55-1.19,1.26-2.22,2.01-3.21c0.76-0.98,1.58-1.91,2.45-2.77
						c0.87-0.87,1.79-1.69,2.78-2.45C259.45,71.56,260.49,70.85,261.67,70.3z"/>
					<path class="st5" d="M261.67,80.75c-1.19-0.55-2.22-1.26-3.21-2.01c-0.98-0.76-1.91-1.58-2.78-2.45
						c-0.87-0.87-1.69-1.79-2.45-2.77c-0.75-0.99-1.46-2.02-2.01-3.21c1.19,0.55,2.22,1.26,3.21,2.01c0.98,0.76,1.91,1.58,2.77,2.45
						c0.87,0.87,1.69,1.79,2.45,2.78C260.41,78.52,261.12,79.56,261.67,80.75z"/>
				</g>
			</g>
			<g>
				<g>
					<path class="st5" d="M286.02,68.14c0.45,1.23,0.68,2.46,0.85,3.69c0.16,1.23,0.23,2.46,0.23,3.69c0,1.23-0.07,2.46-0.23,3.69
						c-0.17,1.23-0.4,2.46-0.85,3.69c-0.45-1.23-0.68-2.46-0.85-3.69c-0.16-1.23-0.23-2.46-0.23-3.69c0-1.23,0.08-2.46,0.23-3.69
						C285.34,70.6,285.57,69.37,286.02,68.14z"/>
					<path class="st5" d="M293.41,75.52c-1.23,0.45-2.46,0.68-3.69,0.85c-1.23,0.16-2.46,0.23-3.69,0.23
						c-1.23,0-2.46-0.07-3.69-0.23c-1.23-0.17-2.46-0.4-3.69-0.85c1.23-0.45,2.46-0.68,3.69-0.85c1.23-0.16,2.46-0.23,3.69-0.23
						c1.23,0,2.46,0.08,3.69,0.23C290.95,74.84,292.18,75.08,293.41,75.52z"/>
					<path class="st5" d="M291.25,70.3c-0.55,1.19-1.26,2.22-2.01,3.21c-0.76,0.98-1.58,1.91-2.45,2.78
						c-0.87,0.87-1.79,1.69-2.77,2.45c-0.99,0.75-2.02,1.46-3.21,2.01c0.55-1.19,1.26-2.22,2.01-3.21c0.76-0.98,1.58-1.91,2.45-2.77
						c0.87-0.87,1.79-1.69,2.78-2.45C289.02,71.56,290.06,70.85,291.25,70.3z"/>
					<path class="st5" d="M291.25,80.75c-1.19-0.55-2.22-1.26-3.21-2.01c-0.98-0.76-1.91-1.58-2.78-2.45
						c-0.87-0.87-1.69-1.79-2.45-2.77c-0.75-0.99-1.46-2.02-2.01-3.21c1.19,0.55,2.22,1.26,3.21,2.01c0.98,0.76,1.91,1.58,2.77,2.45
						c0.87,0.87,1.69,1.79,2.45,2.78C289.98,78.52,290.69,79.56,291.25,80.75z"/>
				</g>
			</g>
		</g>
	</g>
	<g>
		<g>
			<path class="st6" d="M275.95,93.72v79.71h-22.53V93.72c0-30.31-23.02-54.96-51.34-54.96s-51.34,24.65-51.34,54.96v79.71h-22.53
				V93.72c0-43.41,33.14-78.72,73.87-78.72S275.95,50.3,275.95,93.72z"/>
			<polygon class="st7" points="128.21,114.44 150.74,115.35 150.74,173.43 128.21,173.43 			"/>
			<polygon class="st7" points="275.95,120.46 275.95,173.43 253.43,173.43 253.43,119.53 			"/>
		</g>
		<rect x="99.34" y="128.04" class="st8" width="205.48" height="186.42"/>
		<rect x="202.08" y="128.04" class="st9" width="102.74" height="186.42"/>
		<path class="st7" d="M210.77,228.07l8.6,40.8h-36.5l8.6-40.8c-5.14-3.25-8.6-8.92-8.6-15.42c0-10.17,8.18-18.25,18.25-18.25
			c10.07,0,18.25,8.08,18.25,18.25C219.38,219.16,215.91,224.82,210.77,228.07z"/>
	</g>
	<g>
		<g>
			<path class="st10" d="M153.66,174.83c0,0-7.93,61.34-20.98,75.14c-15.66,16.56-27.02,14.14-33.34,22.67
				c-0.01,0-0.01,0.01-0.01,0.01c-6.32-8.55-17.68-6.12-33.35-22.69c-13.04-13.8-20.96-75.14-20.96-75.14
				c34.36-16.11,54.31-34.16,54.31-34.16s0,0,0.01,0.01C99.96,141.24,119.83,158.98,153.66,174.83z"/>
			<path class="st4" d="M99.35,140.68v131.97c-0.01,0-0.01,0.01-0.01,0.01c-6.32-8.55-17.68-6.12-33.35-22.69
				c-13.04-13.8-20.96-75.14-20.96-75.14c34.36-16.11,54.31-34.16,54.31-34.16S99.34,140.67,99.35,140.68z"/>
			<g>
				<path class="st4" d="M145.23,179.77c0,0-6.7,51.82-17.72,63.48c-13.24,14.01-22.84,11.95-28.18,19.17
					c-5.34-7.21-14.94-5.16-28.18-19.17c-11.02-11.67-17.7-63.48-17.7-63.48c29.03-13.61,45.89-28.86,45.89-28.86
					S116.21,166.16,145.23,179.77z"/>
				<path class="st11" d="M53.47,179.77c0,0,6.7,51.81,17.72,63.48c13.22,14,22.82,11.95,28.16,19.15V150.93
					C98.83,151.39,82.04,166.37,53.47,179.77z"/>
			</g>
		</g>
		<g>
			<ellipse class="st12" cx="99.34" cy="206.66" rx="21.28" ry="20.55"/>
			<polygon class="st3" points="96.92,220.01 87.44,210.5 90.96,207.23 96.18,212.48 107.44,195.8 111.53,198.37 			"/>
		</g>
	</g>
	<g>
		<g>
			<path class="st5" d="M157.48,307.51l0.43,2.18c0.52,2.66,3.09,4.39,5.75,3.87l137.68-26.88l-2.3-11.79l-137.68,26.88
				C158.7,302.28,156.97,304.85,157.48,307.51z"/>
			
				<rect x="283.4" y="276.39" transform="matrix(0.9815 -0.1916 0.1916 0.9815 -48.7039 61.1594)" class="st13" width="16.94" height="12.02"/>
		</g>
		<path class="st5" d="M319.69,238.32c-7.4,1.45-13.51,5.75-17.41,11.53c-3.89,5.78-5.59,13.06-4.14,20.45l4.08,20.92
			c2.89,14.78,17.21,24.43,32,21.55c7.39-1.44,13.5-5.75,17.39-11.53c3.89-5.8,5.58-13.07,4.14-20.47l-4.08-20.92
			C348.79,245.08,334.47,235.44,319.69,238.32z M321.31,246.61c9.69-1.89,18.86,3.32,20.48,11.65c1.22,6.22-2.14,12.43-7.96,15.95
			c6.72,1.07,12.16,5.56,13.37,11.79c1.62,8.32-4.9,16.62-14.59,18.51c-9.69,1.89-18.87-3.34-20.5-11.66
			c-1.22-6.22,2.14-12.41,7.96-15.95c-6.72-1.07-12.16-5.56-13.37-11.79C305.07,256.77,311.62,248.5,321.31,246.61z"/>
		<path class="st5" d="M292.56,270.65l4.37,22.37c0.24,1.22,1.43,2.02,2.65,1.79l1-0.2c1.23-0.24,2.02-1.43,1.79-2.65L298,269.59
			c-0.24-1.22-1.43-2.02-2.65-1.79l-1.01,0.2C293.12,268.24,292.32,269.43,292.56,270.65z"/>
		<path class="st5" d="M287.12,271.72l4.37,22.38c0.24,1.23,1.43,2.02,2.65,1.79l1-0.2c1.23-0.24,2.02-1.43,1.79-2.65l-4.37-22.37
			c-0.24-1.23-1.43-2.02-2.65-1.79l-1,0.2C287.68,269.3,286.88,270.49,287.12,271.72z"/>
		<polygon class="st5" points="194.2,290.32 190.09,291.12 187.77,279.2 184.26,279.89 185.48,286.1 181.38,286.9 180.17,280.68 
			177.06,281.29 178.98,291.11 174.88,291.92 172.96,282.09 168.55,282.95 171.11,296.07 167.01,296.88 164.45,283.75 
			160.28,284.57 163.56,301.34 200.21,294.18 196.94,277.41 191.87,278.4 		"/>
	</g>
	<g>
		<path class="st14" d="M357.9,133.34l3.18-5.13l-1.57-0.97c-0.46-0.29-0.71-0.81-0.67-1.35c0.03-0.3,0.04-0.6,0.03-0.9
			c-0.01-0.54,0.27-1.05,0.75-1.3l1.63-0.87l-2.86-5.32l-1.63,0.87c-0.48,0.26-1.05,0.21-1.5-0.1c-0.25-0.17-0.5-0.33-0.77-0.48
			c-0.48-0.26-0.77-0.76-0.76-1.3l0.06-1.85l-6.04-0.19l-0.06,1.85c-0.02,0.54-0.35,1.02-0.84,1.25c-0.13,0.06-0.27,0.13-0.4,0.2
			c-0.13,0.07-0.26,0.14-0.39,0.22c-0.46,0.28-1.04,0.3-1.5,0.01L343,117l-3.18,5.13l1.57,0.98c0.46,0.29,0.71,0.81,0.67,1.35
			c-0.03,0.3-0.04,0.6-0.03,0.9c0.01,0.54-0.27,1.05-0.75,1.3l-1.63,0.87l2.86,5.32l1.63-0.87c0.48-0.26,1.05-0.21,1.5,0.1
			c0.25,0.17,0.5,0.33,0.77,0.47c0.48,0.26,0.77,0.76,0.76,1.3l-0.06,1.85l6.04,0.19l0.06-1.85c0.02-0.54,0.35-1.01,0.84-1.25
			c0.13-0.06,0.27-0.13,0.4-0.2c0.13-0.07,0.26-0.14,0.39-0.22c0.47-0.28,1.04-0.3,1.51-0.01L357.9,133.34z M352.79,129.53
			c-2.41,1.29-5.4,0.39-6.69-2.02c-1.29-2.41-0.39-5.41,2.02-6.7c2.41-1.29,5.41-0.38,6.7,2.02
			C356.1,125.24,355.19,128.23,352.79,129.53z"/>
		<path class="st14" d="M20.99,162.47l3.66-2.11l-0.65-1.12c-0.19-0.33-0.17-0.74,0.04-1.05c0.12-0.18,0.22-0.36,0.32-0.55
			c0.17-0.34,0.51-0.56,0.89-0.56h1.3v-4.23h-1.3c-0.38,0-0.72-0.22-0.89-0.56c-0.1-0.19-0.2-0.37-0.32-0.55
			c-0.21-0.32-0.23-0.72-0.04-1.05l0.65-1.12l-3.66-2.11l-0.65,1.13c-0.19,0.33-0.55,0.51-0.93,0.49c-0.1-0.01-0.21-0.01-0.31-0.01
			c-0.1,0-0.21,0-0.31,0.01c-0.38,0.02-0.74-0.16-0.93-0.49l-0.65-1.13l-3.66,2.11l0.65,1.12c0.19,0.33,0.17,0.74-0.04,1.05
			c-0.11,0.18-0.22,0.36-0.32,0.55c-0.17,0.34-0.51,0.56-0.89,0.56h-1.3v4.23h1.3c0.38,0,0.72,0.22,0.89,0.56
			c0.1,0.19,0.2,0.37,0.32,0.55c0.21,0.32,0.23,0.72,0.04,1.05l-0.65,1.12l3.66,2.11l0.65-1.13c0.19-0.33,0.55-0.51,0.93-0.49
			c0.1,0.01,0.21,0.01,0.31,0.01c0.1,0,0.21,0,0.31-0.01c0.38-0.02,0.74,0.16,0.93,0.49L20.99,162.47z M19.1,158.43
			c-1.91,0-3.46-1.55-3.46-3.46s1.55-3.47,3.46-3.47s3.47,1.55,3.47,3.47S21.01,158.43,19.1,158.43z"/>
		<path class="st14" d="M346.29,142.24l-2.11-3.66l-1.12,0.65c-0.33,0.19-0.74,0.17-1.05-0.04c-0.18-0.12-0.36-0.22-0.55-0.32
			c-0.34-0.17-0.56-0.51-0.56-0.89v-1.3h-4.23v1.3c0,0.38-0.22,0.72-0.56,0.89c-0.19,0.1-0.37,0.2-0.55,0.32
			c-0.32,0.21-0.72,0.23-1.05,0.04l-1.12-0.65l-2.11,3.66l1.13,0.65c0.33,0.19,0.51,0.55,0.49,0.93c-0.01,0.1-0.01,0.21-0.01,0.31
			s0,0.21,0.01,0.31c0.02,0.38-0.16,0.74-0.49,0.93l-1.13,0.65l2.11,3.66l1.12-0.65c0.33-0.19,0.74-0.17,1.05,0.04
			c0.18,0.11,0.36,0.22,0.55,0.32c0.34,0.17,0.56,0.51,0.56,0.89v1.3h4.23v-1.3c0-0.38,0.22-0.72,0.56-0.89
			c0.19-0.1,0.37-0.2,0.55-0.32c0.32-0.21,0.72-0.23,1.05-0.04l1.12,0.65l2.11-3.66l-1.12-0.65c-0.33-0.19-0.51-0.55-0.49-0.93
			c0.01-0.1,0.01-0.21,0.01-0.31c0-0.1,0-0.21-0.01-0.31c-0.02-0.38,0.16-0.74,0.49-0.93L346.29,142.24z M342.25,144.14
			c0,1.91-1.55,3.46-3.46,3.46c-1.91,0-3.47-1.55-3.47-3.46s1.55-3.47,3.47-3.47C340.7,140.67,342.25,142.22,342.25,144.14z"/>
		<path class="st14" d="M368.62,229.35l3.66-2.11l-0.65-1.12c-0.19-0.33-0.17-0.74,0.04-1.05c0.12-0.18,0.22-0.36,0.32-0.55
			c0.17-0.34,0.51-0.56,0.89-0.56h1.3v-4.23h-1.3c-0.38,0-0.72-0.22-0.89-0.56c-0.1-0.19-0.2-0.37-0.32-0.55
			c-0.21-0.32-0.23-0.72-0.04-1.05l0.65-1.12l-3.66-2.11l-0.65,1.13c-0.19,0.33-0.55,0.51-0.93,0.49c-0.1-0.01-0.21-0.01-0.31-0.01
			c-0.1,0-0.21,0-0.31,0.01c-0.38,0.02-0.74-0.16-0.93-0.49l-0.65-1.13l-3.66,2.11l0.65,1.12c0.19,0.33,0.17,0.74-0.04,1.05
			c-0.11,0.18-0.22,0.36-0.32,0.55c-0.17,0.34-0.51,0.56-0.89,0.56h-1.3v4.23h1.3c0.38,0,0.72,0.22,0.89,0.56
			c0.1,0.19,0.2,0.37,0.32,0.55c0.21,0.32,0.23,0.72,0.04,1.05l-0.65,1.12l3.66,2.11l0.65-1.13c0.19-0.33,0.55-0.51,0.93-0.49
			c0.1,0.01,0.21,0.01,0.31,0.01c0.1,0,0.21,0,0.31-0.01c0.38-0.02,0.74,0.16,0.93,0.49L368.62,229.35z M366.72,225.31
			c-1.91,0-3.46-1.55-3.46-3.46s1.55-3.47,3.46-3.47s3.47,1.55,3.47,3.47S368.64,225.31,366.72,225.31z"/>
		<path class="st14" d="M40.28,241.41l3.18-5.13l-1.57-0.97c-0.46-0.29-0.71-0.81-0.67-1.35c0.03-0.3,0.04-0.6,0.03-0.9
			c-0.01-0.54,0.27-1.05,0.75-1.3l1.63-0.87l-2.86-5.32l-1.63,0.87c-0.48,0.26-1.05,0.21-1.5-0.1c-0.25-0.17-0.5-0.33-0.77-0.48
			c-0.48-0.26-0.77-0.76-0.76-1.3l0.06-1.85l-6.04-0.19l-0.06,1.85c-0.02,0.54-0.35,1.02-0.84,1.25c-0.13,0.06-0.27,0.13-0.4,0.2
			c-0.13,0.07-0.26,0.14-0.39,0.22c-0.46,0.28-1.04,0.3-1.5,0.01l-1.58-0.98l-3.18,5.13l1.57,0.98c0.46,0.29,0.71,0.81,0.67,1.35
			c-0.03,0.3-0.04,0.6-0.03,0.9c0.01,0.54-0.27,1.05-0.75,1.3l-1.63,0.87l2.86,5.32l1.63-0.87c0.48-0.26,1.05-0.21,1.5,0.1
			c0.25,0.17,0.5,0.33,0.77,0.47c0.48,0.26,0.77,0.76,0.76,1.3l-0.06,1.85l6.04,0.19l0.06-1.85c0.02-0.54,0.35-1.01,0.84-1.25
			c0.13-0.06,0.27-0.13,0.4-0.2c0.13-0.07,0.26-0.14,0.39-0.22c0.47-0.28,1.04-0.3,1.51-0.01L40.28,241.41z M35.17,237.59
			c-2.41,1.29-5.4,0.39-6.69-2.02c-1.29-2.41-0.39-5.41,2.02-6.7c2.41-1.29,5.41-0.38,6.7,2.02
			C38.49,233.31,37.58,236.3,35.17,237.59z"/>
		<path class="st14" d="M289.31,48.43l3.66-2.11l-0.65-1.12c-0.19-0.33-0.17-0.74,0.04-1.05c0.12-0.18,0.22-0.36,0.32-0.55
			c0.17-0.34,0.51-0.56,0.89-0.56h1.3V38.8h-1.3c-0.38,0-0.72-0.22-0.89-0.56c-0.1-0.19-0.2-0.37-0.32-0.55
			c-0.21-0.32-0.23-0.72-0.04-1.05l0.65-1.12l-3.66-2.11l-0.65,1.13c-0.19,0.33-0.55,0.51-0.93,0.49c-0.1-0.01-0.21-0.01-0.31-0.01
			c-0.1,0-0.21,0-0.31,0.01c-0.38,0.02-0.74-0.16-0.93-0.49l-0.65-1.13l-3.66,2.11l0.65,1.12c0.19,0.33,0.17,0.74-0.04,1.05
			c-0.11,0.18-0.22,0.36-0.32,0.55c-0.17,0.34-0.51,0.56-0.89,0.56h-1.3v4.23h1.3c0.38,0,0.72,0.22,0.89,0.56
			c0.1,0.19,0.2,0.37,0.32,0.55c0.21,0.32,0.23,0.72,0.04,1.05l-0.65,1.12l3.66,2.11l0.65-1.13c0.19-0.33,0.55-0.51,0.93-0.49
			c0.1,0.01,0.21,0.01,0.31,0.01c0.1,0,0.21,0,0.31-0.01c0.38-0.02,0.74,0.16,0.93,0.49L289.31,48.43z M287.41,44.38
			c-1.91,0-3.46-1.55-3.46-3.46c0-1.91,1.55-3.47,3.46-3.47s3.47,1.55,3.47,3.47C290.88,42.83,289.33,44.38,287.41,44.38z"/>
	</g>
</g>
</svg>
