<?xml version="1.0" encoding="utf-8"?>
<!-- Generator: Adobe Illustrator 24.1.1, SVG Export Plug-In . SVG Version: 6.00 Build 0)  -->
<svg version="1.1" id="Layer_1" xmlns="http://www.w3.org/2000/svg" xmlns:xlink="http://www.w3.org/1999/xlink" x="0px" y="0px"
	 viewBox="0 0 550 500" style="enable-background:new 0 0 550 500;" xml:space="preserve">
<style type="text/css">
	.st0{fill:none;stroke:#005793;stroke-miterlimit:10;stroke-dasharray:7,7;}
	.st1{fill:url(#SVGID_1_);}
	.st2{fill:url(#SVGID_2_);}
	.st3{fill:#003A7F;}
	.st4{fill:#005793;}
	.st5{fill:#003560;}
	.st6{fill:#FFDB60;}
	.st7{opacity:0.25;fill:#FFFFFF;enable-background:new    ;}
	.st8{fill:#FFFFFF;}
	.st9{fill:#0A9C81;}
	.st10{fill:#83D175;}
	.st11{fill:#007CC1;}
	.st12{opacity:0.56;fill:#DD7E17;enable-background:new    ;}
	.st13{fill:#005078;}
	.st14{fill:#014163;}
	.st15{fill:none;stroke:#003A7F;stroke-miterlimit:10;}
	.st16{fill:#004368;}
	.st17{fill:#F2C12E;}
	.st18{fill:#DD7E17;}
	.st19{fill:none;stroke:#BA4219;stroke-miterlimit:10;}
	.st20{fill:#034877;}
	.st21{fill:#FFBB80;}
	.st22{fill:#101010;}
	.st23{fill:#FFDCA0;}
	.st24{fill:#51555D;}
	.st25{fill:#0C8E59;}
	.st26{fill:#77C26C;}
	.st27{fill:#EA394A;}
	.st28{fill:#D61A36;}
	.st29{fill:#F4A640;}
	.st30{fill:#ADCFD8;}
	.st31{fill:#55769F;}
	.st32{fill:#DAEEF7;}
	.st33{fill:#FEB546;}
	.st34{fill:#E03268;}
	.st35{fill:#FF5B7E;}
	.st36{fill:#BADCEF;}
	.st37{fill:#02CCC0;}
	.st38{fill:#06BFAD;}
	.st39{opacity:0.5;fill:#55769F;enable-background:new    ;}
	.st40{fill:#A9FFFD;}
	.st41{fill:#FBCF53;}
	.st42{clip-path:url(#SVGID_5_);fill:#FAB21F;}
	.st43{fill:none;stroke:#FFFFFF;stroke-miterlimit:10;}
	.st44{fill:none;stroke:#FFFFFF;stroke-miterlimit:9.999;}
	.st45{fill:#FFFFFF;stroke:#FFFFFF;stroke-miterlimit:10;}
	.st46{enable-background:new    ;}
	.st47{fill:none;}
	.st48{font-family:'Lato-Regular';}
	.st49{font-size:42.6644px;}
</style>
<g>
	<path class="st0" d="M486.3,325.5c20.7-5.5,10.3-11.6,36.6-26.1c31.8-17.4-1.2-62.3,5.8-72.6c16-23.5,15.9-70.1-9.9-77.5
		c-22.5-6.4-25.5,7.4-54-12.5c-16.8-11.7-16.2-56.3-34.8-65.2c-23.9-11.4-42.7-4.5-66.6,4.8c-30.1,11.8-110.6-0.3-120.3,1.7
		c-28.6,6.1-44.1,38.9-81.7,41.8c-51.3,3.9-46.5,36.4-59.3,53.1c-5.4,7-50.9,21-42.4,77.7c2.4,16-40.4,39.4-44.6,55.1
		c-5.1,19.3-2.5,38.8,6.3,56.8c8.9,18,15,37.2,30.6,50.5"/>
	<g>
		<g>
			<g>
				<g>
					
						<linearGradient id="SVGID_1_" gradientUnits="userSpaceOnUse" x1="3568.6074" y1="-77.0587" x2="3624.2876" y2="-77.0587" gradientTransform="matrix(-1 0 0 1 3722.2881 452)">
						<stop  offset="0" style="stop-color:#FFFFFF"/>
						<stop  offset="0.2841" style="stop-color:#F9FBFF"/>
						<stop  offset="0.6724" style="stop-color:#E7EFFF"/>
						<stop  offset="1" style="stop-color:#D3E2FF"/>
					</linearGradient>
					<path class="st1" d="M153.5,262.8c-2.7,4.1-13.3,8.2-27.7,8.2s-24.1-3.6-27.7-8.2c1.6,13.8,12.4,115.4,0,217.4
						c-0.1,0.5-0.2,1.1-0.2,1.6c0,7.8,55.8,5.9,55.7,0c0-0.5-0.1-1.1-0.2-1.6C141.1,378.2,151.9,276.6,153.5,262.8z"/>
					
						<linearGradient id="SVGID_2_" gradientUnits="userSpaceOnUse" x1="3596.4575" y1="-183.2782" x2="3596.4575" y2="-195.8386" gradientTransform="matrix(-1 0 0 1 3722.2881 452)">
						<stop  offset="0" style="stop-color:#FFFFFF"/>
						<stop  offset="0.2841" style="stop-color:#F9FBFF"/>
						<stop  offset="0.6724" style="stop-color:#E7EFFF"/>
						<stop  offset="1" style="stop-color:#D3E2FF"/>
					</linearGradient>
					<path class="st2" d="M125.8,251.5c-15.4,0-27.8,4.4-27.8,9.7c0,0,0.1,0.4,0.2,1.1c1.6,4.9,13.3,8.6,27.7,8.6s26.1-3.8,27.7-8.6
						c0.1-0.7,0.2-1.1,0.2-1.1C153.7,255.9,141.2,251.5,125.8,251.5z"/>
				</g>
				<ellipse class="st3" cx="125.8" cy="261.2" rx="19.2" ry="5.4"/>
			</g>
			<g>
				<path class="st4" d="M147.6,357.8c-5.1,3.3-13,5.4-21.8,5.4s-16.7-2.1-21.8-5.4c0.1,7.2,0,14.6-0.1,22.2
					c5.1,3.3,13,5.4,21.9,5.4s16.8-2.1,21.9-5.4C147.6,372.4,147.6,365,147.6,357.8z"/>
			</g>
		</g>
		<path class="st5" d="M147.6,357.8c0,0,16.5-9,20.2-31.1c0,0,3.5,11.6,1.1,17.5c0,0,4.4-1.2,7.1-5.8c0,0-3.5,14.3-14.2,22.1
			c0,0,6.1,0.2,11.6,6.5c0,0-4.7-1-9.7,0c0,0,1.8,3.2,4.1,5.9c0,0-11-4.3-20.1,7L147.6,357.8z"/>
	</g>
	<g>
		<g>
			<g>
				<path class="st6" d="M378.6,158.3c0-42.3-34.2-76.6-76.5-76.6c-42.3,0-76.6,34.2-76.6,76.5c0,17.9,10.6,37.5,16.4,47.4
					c22.6,38.4,27.2,44.2,28.9,68c13.3,0,52.1,0,62.3,0c1.4-23,7.8-31.7,29-68C373.4,186.3,378.6,176.2,378.6,158.3z"/>
				<ellipse transform="matrix(0.9631 -0.269 0.269 0.9631 -27.6932 95.0588)" class="st7" cx="333" cy="148.6" rx="39.4" ry="55"/>
				<g>
					<path class="st8" d="M367.3,127.5c3.5,6,5.8,12.7,7,19.6c1.3,6.9,1.4,14.1,0.4,21.1c-1,7-3.2,13.8-6.4,20.1
						c-3.2,6.3-7.3,12-12.3,16.9c3.6-5.9,6.8-11.9,9.3-18.2c2.5-6.3,4.2-12.7,5.2-19.3c1-6.6,1.1-13.3,0.5-20
						C370.5,140.9,369.2,134.2,367.3,127.5z"/>
				</g>
			</g>
			<rect x="270.6" y="274.5" class="st9" width="61.2" height="15.9"/>
			<polygon class="st9" points="318,313.3 284.4,313.2 270.6,297.4 331.8,297.4 			"/>
			<g>
				<polygon class="st9" points="331.8,297.4 270.6,297.4 275.5,303 326.9,303 				"/>
				<polygon class="st9" points="284.4,313.2 318,313.3 322.5,308.1 279.9,308 				"/>
			</g>
			<path class="st10" d="M339.1,278.4l-75.5,0c-1.3,0-2.3-1-2.3-2.3v-7.1c0-1.3,1-2.3,2.3-2.3l75.5,0c1.3,0,2.3,1,2.3,2.3v7.1
				C341.4,277.4,340.4,278.4,339.1,278.4z"/>
			<path class="st10" d="M335.2,299.8l-67.7,0c-1.3,0-2.3-1-2.3-2.3v-7.1c0-1.3,1-2.3,2.3-2.3l67.7,0c1.3,0,2.3,1,2.3,2.3l0,7.1
				C337.5,298.8,336.5,299.8,335.2,299.8z"/>
			<path class="st9" d="M287.8,319.5c0,0,3.4,7.5,14.6,7.5c11.2,0,14.3-7.5,14.3-7.5L287.8,319.5z"/>
			<path class="st10" d="M318.3,310.8l-32.8,0c-3.3,0-5.9,2.2-5.9,4.9l0,0c0,2.7,2.6,4.9,5.9,4.9l32.8,0c3.3,0,5.9-2.2,5.9-4.9l0,0
				C324.2,313,321.6,310.8,318.3,310.8z"/>
			<g>
				<path class="st8" d="M283.1,196.4h-1.5c3.2,22,5.1,48.4,6,63.2c0.1,2.4,0.3,4.6,0.4,6.3c0.5,0.1,1,0.1,1.5,0.2
					c-0.1-1.8-0.2-4.1-0.4-6.8C288.1,244.5,286.2,218.4,283.1,196.4z"/>
				<path class="st11" d="M316.5,229.4c-0.7,11.2-1,21.6-1.1,29.3c0,2.7,0,5-0.1,7c0.5-0.1,1-0.1,1.5-0.2c0-1.8,0-4.1,0.1-6.6
					c0.2-12.8,0.9-33.4,3.3-53h-1.5C317.8,213,317.1,220.9,316.5,229.4z"/>
				<g>
					<path class="st9" d="M333.5,141.8c-5.6-0.7-10.7,3.4-11.3,9c-0.7,5.6,3.4,10.7,9,11.3c5.6,0.7,10.7-3.4,11.3-9
						C343.1,147.5,339.1,142.4,333.5,141.8z"/>
					<path class="st9" d="M354.9,152.5l-3.8-0.4c0-1.9-0.3-3.8-0.8-5.6l3.5-1.5c1-0.4,1.5-1.7,1.1-2.7s-1.7-1.5-2.7-1.1l-3.5,1.5
						c-1-1.7-2.2-3.2-3.6-4.5l2.3-3.1c0.7-0.9,0.5-2.2-0.4-2.9c-0.9-0.7-2.2-0.5-2.9,0.4l-2.3,3.1c-1.6-0.9-3.4-1.6-5.2-2.1l0.5-3.8
						c0.1-1.1-0.7-2.2-1.8-2.3c-1.1-0.1-2.2,0.7-2.3,1.8l-0.5,3.8c-1.9,0-3.8,0.3-5.6,0.8l-1.5-3.5c-0.5-1.1-1.7-1.5-2.7-1.1
						s-1.5,1.7-1.1,2.7l1.5,3.5c-1.7,0.9-3.2,2.2-4.5,3.6l-3.1-2.3c-0.9-0.7-2.2-0.5-2.9,0.4c-0.7,0.9-0.5,2.2,0.4,2.9l3.1,2.3
						c-0.9,1.6-1.6,3.4-2.1,5.2l-3.8-0.4c-1.1-0.1-2.2,0.7-2.3,1.8c-0.1,1.1,0.7,2.2,1.8,2.3l3.8,0.4c0,1.9,0.3,3.8,0.8,5.6
						l-3.5,1.5c-1,0.4-1.5,1.7-1.1,2.7s1.7,1.5,2.7,1.1l3.5-1.5c1,1.7,2.2,3.2,3.6,4.5l-2.3,3.1c-0.7,0.9-0.5,2.2,0.4,2.9
						c0.9,0.7,2.2,0.5,2.9-0.4l2.3-3.1c1.6,0.9,3.4,1.6,5.2,2.1l-0.5,3.8c-0.1,1.1,0.7,2.2,1.8,2.3c1.1,0.1,2.2-0.7,2.3-1.8l0.5-3.8
						c1.9,0,3.8-0.3,5.6-0.8l1.5,3.5c0.5,1.1,1.7,1.5,2.7,1.1s1.5-1.7,1.1-2.7l-1.5-3.5c1.7-0.9,3.2-2.2,4.5-3.6l3.1,2.3
						c0.9,0.7,2.2,0.5,2.9-0.4c0.7-0.9,0.5-2.2-0.4-2.9l-3.1-2.3c0.9-1.6,1.6-3.4,2.1-5.2l3.8,0.4c1.1,0.1,2.2-0.7,2.3-1.8
						C356.9,153.7,356.1,152.6,354.9,152.5z M330.6,166.8c-8.2-1-14-8.4-13.1-16.6s8.4-14.1,16.6-13.1s14,8.4,13.1,16.6
						S338.8,167.7,330.6,166.8z"/>
				</g>
				<g>
					<path class="st8" d="M314.1,170.8l-2.5-0.2c0-0.8-0.1-1.7-0.1-2.5l2.5-0.4c1.3-0.2,2.1-1.4,1.8-2.7c-0.2-1.3-1.4-2.1-2.7-1.8
						l-2.5,0.4c-0.3-1.1-0.7-2.3-1.1-3.4l2.2-1.1c1.1-0.6,1.6-1.9,1-3.1s-2-1.6-3.1-1l-2.2,1.1c-0.5-0.8-1-1.5-1.5-2.3l1.9-1.6
						c1-0.8,1-2.3,0.2-3.2c-0.8-0.9-2.3-1.1-3.2-0.2l-1.9,1.6c-0.6-0.6-1.2-1.1-1.9-1.7l1.4-2.1c0.7-1,0.5-2.5-0.6-3.2
						c-1-0.7-2.5-0.5-3.2,0.6l-1.4,2.1c-0.9-0.5-1.9-1-2.8-1.4l0.8-2.4c0.4-1.2-0.2-2.5-1.4-2.9s-2.5,0.2-2.9,1.4l-0.8,2.4
						c-0.9-0.2-1.9-0.4-2.8-0.6l0.2-2.5c0.1-1.3-0.9-2.4-2.1-2.5c-1.3-0.1-2.4,0.9-2.5,2.1l-0.2,2.5c-1.2,0-2.3,0.1-3.4,0.2
						l-0.5-2.4c-0.3-1.2-1.5-2-2.7-1.8s-2,1.5-1.8,2.7l0.5,2.4c-0.8,0.2-1.6,0.5-2.4,0.8l-1.1-2.3c-0.5-1.1-1.9-1.6-3.1-1.1
						c-1.1,0.6-1.6,1.9-1.1,3.1l1.1,2.3c-0.9,0.5-1.8,1.1-2.6,1.8l-1.7-1.9c-0.8-0.9-2.3-1-3.2-0.2c-1,0.8-1,2.3-0.2,3.2l1.7,1.9
						c-0.7,0.7-1.3,1.4-1.9,2.1l-2.1-1.4c-1-0.7-2.5-0.4-3.2,0.6s-0.4,2.5,0.6,3.2l2.1,1.4c-0.5,0.8-0.9,1.6-1.2,2.5l-2.4-0.8
						c-1.2-0.4-2.5,0.2-2.9,1.4c-0.4,1.2,0.2,2.5,1.4,2.9l2.4,0.8c-0.3,1-0.5,2.1-0.6,3.2l-2.5-0.2c-1.3-0.1-2.4,0.9-2.4,2.1
						c-0.1,1.3,0.9,2.4,2.1,2.4l2.5,0.2c0,0.8,0.1,1.7,0.1,2.5l-2.5,0.4c-1.3,0.2-2.1,1.4-1.8,2.7c0.2,1.3,1.4,2.1,2.7,1.8l2.5-0.4
						c0.3,1.1,0.7,2.3,1.1,3.4l-2.2,1.1c-1.1,0.6-1.6,1.9-1,3.1c0.6,1.1,1.9,1.6,3.1,1l2.2-1.1c0.5,0.8,1,1.5,1.5,2.3l-1.9,1.6
						c-1,0.8-1,2.3-0.2,3.2c0.8,0.9,2.3,1.1,3.2,0.2l1.9-1.6c0.6,0.6,1.2,1.1,1.9,1.7l-1.4,2.1c-0.7,1-0.5,2.5,0.6,3.2
						c1,0.7,2.5,0.4,3.2-0.6l1.4-2.1c0.9,0.5,1.9,1,2.8,1.4l-0.8,2.4c-0.4,1.2,0.2,2.5,1.4,2.9c1.2,0.4,2.5-0.2,2.9-1.4l0.8-2.4
						c0.9,0.2,1.9,0.4,2.8,0.6l-0.2,2.5c-0.1,1.3,0.9,2.4,2.1,2.5c1.3,0.1,2.4-0.9,2.5-2.1l0.2-2.5c1.2,0,2.3-0.1,3.4-0.2l0.5,2.4
						c0.3,1.2,1.5,2,2.7,1.8s2-1.5,1.8-2.7l-0.5-2.4c0.8-0.2,1.6-0.5,2.4-0.8l1.1,2.3c0.5,1.1,1.9,1.6,3.1,1.1
						c1.1-0.6,1.6-1.9,1.1-3.1l-1.1-2.3c0.9-0.5,1.8-1.1,2.6-1.8l1.7,1.9c0.8,0.9,2.3,1,3.2,0.2c1-0.8,1-2.3,0.2-3.2l-1.7-1.9
						c0.7-0.7,1.3-1.4,1.9-2.1l2.1,1.4c1,0.7,2.5,0.4,3.2-0.6c0.7-1.1,0.4-2.5-0.6-3.2l-2.1-1.4c0.5-0.8,0.9-1.6,1.2-2.5l2.4,0.8
						c1.2,0.4,2.5-0.2,2.9-1.4c0.4-1.2-0.2-2.5-1.4-2.9l-2.4-0.8c0.3-1,0.5-2.1,0.6-3.2l2.5,0.2c1.3,0.1,2.4-0.9,2.4-2.1
						C316.4,171.9,315.4,170.9,314.1,170.8z M287,146.4c7.2,1.2,13.4,5.5,17.1,11.4l-10,5c-1.9-2.6-4.7-4.5-8-5.3L287,146.4z
						 M282.4,146.1l-0.8,11.1c-3.5,0.3-6.6,1.9-8.9,4.3l-9.3-6.2C267.9,149.8,274.8,146.2,282.4,146.1z M259.5,180.2
						c-1-2.6-1.6-5.5-1.7-8.4l0.3-4.6c0.5-2.9,1.4-5.6,2.7-8.1l9.3,6.2c-0.4,0.8-0.7,1.7-0.9,2.6l-0.3,4.6c0.1,0.9,0.3,1.8,0.5,2.7
						L259.5,180.2z M278.7,195.8c-7.2-1.2-13.4-5.5-17.1-11.4l10-5c1.9,2.6,4.7,4.5,8,5.3L278.7,195.8z M282.8,177.3
						c-3.5,0-6.2-2.9-6.2-6.3c0-3.4,2.9-6.2,6.3-6.2c3.5,0,6.2,2.9,6.2,6.3C289.1,174.6,286.2,177.4,282.8,177.3z M283.3,196.1
						l0.8-11.1c3.5-0.3,6.6-1.9,8.9-4.3l9.3,6.2C297.8,192.4,290.9,196,283.3,196.1z M307.6,175c-0.5,2.9-1.4,5.6-2.7,8.1l-9.3-6.2
						c0.4-0.8,0.7-1.7,0.9-2.6l0.3-4.6c-0.1-0.9-0.3-1.8-0.5-2.7l10-5c1,2.6,1.6,5.5,1.7,8.4L307.6,175z"/>
					<path class="st8" d="M282.9,168c-1.7,0-3.1,1.4-3.1,3.1s1.4,3.1,3,3.1c1.7,0,3.1-1.4,3.1-3.1C286,169.4,284.6,168,282.9,168z"
						/>
				</g>
				<g>
					<path class="st11" d="M315,192.3c-1.5-0.2-2.8,0.9-3,2.3c-0.2,1.5,0.9,2.8,2.3,3c1.5,0.2,2.8-0.9,3-2.3
						C317.5,193.8,316.5,192.4,315,192.3z"/>
					<path class="st6" d="M333,146.7c-2.9-0.4-5.5,1.7-5.9,4.6s1.7,5.5,4.6,5.9c2.9,0.4,5.5-1.7,5.9-4.6
						C337.9,149.7,335.8,147.1,333,146.7z"/>
					<path class="st11" d="M339.5,196.1l-2.8-0.4c0.1-1.6,0-3.3-0.3-4.8l2.7-0.7c1-0.3,1.6-1.3,1.3-2.3c-0.3-1-1.3-1.6-2.3-1.3
						l-2.7,0.7c-0.6-1.5-1.3-3-2.2-4.4l2.2-1.7c0.8-0.6,1-1.8,0.3-2.6c-0.6-0.8-1.8-1-2.6-0.3l-2.2,1.7c-1.1-1.2-2.3-2.3-3.7-3.2
						l1.4-2.4c0.5-0.9,0.2-2.1-0.7-2.6s-2.1-0.2-2.6,0.7l-1.4,2.4c-1.5-0.7-3-1.2-4.6-1.5l0.4-2.8c0.1-1-0.6-2-1.6-2.1
						c-1-0.1-2,0.6-2.1,1.6l-0.4,2.8c-1.6-0.1-3.3,0.1-4.8,0.3l-0.7-2.7c-0.3-1-1.3-1.6-2.3-1.3c-1,0.3-1.6,1.3-1.3,2.3l0.7,2.7
						c-1.5,0.6-3,1.3-4.4,2.2l-1.7-2.2c-0.6-0.8-1.8-1-2.6-0.3s-1,1.8-0.3,2.6l1.7,2.2c-1.2,1.1-2.3,2.3-3.2,3.7l-2.4-1.4
						c-0.9-0.5-2.1-0.2-2.6,0.7s-0.2,2.1,0.7,2.6l2.4,1.4c-0.7,1.5-1.2,3-1.5,4.6l-2.8-0.4c-1-0.1-2,0.6-2.1,1.6
						c-0.1,1,0.6,2,1.6,2.1l2.8,0.4c-0.1,1.6,0,3.3,0.3,4.8l-2.7,0.7c-1,0.3-1.6,1.3-1.3,2.3c0.3,1,1.3,1.6,2.3,1.3l2.7-0.7
						c0.6,1.5,1.3,3,2.2,4.4l-2.2,1.7c-0.8,0.6-1,1.8-0.3,2.6c0.6,0.8,1.8,1,2.6,0.3l2.2-1.7c1.1,1.2,2.3,2.3,3.7,3.2l-1.4,2.4
						c-0.5,0.9-0.2,2.1,0.7,2.6s2.1,0.2,2.6-0.7l1.4-2.4c1.5,0.7,3,1.2,4.6,1.5l-0.4,2.8c-0.1,1,0.6,2,1.6,2.1c1,0.1,2-0.6,2.1-1.6
						l0.4-2.8c1.6,0.1,3.3-0.1,4.8-0.3l0.7,2.7c0.3,1,1.3,1.6,2.3,1.3c1-0.3,1.6-1.3,1.3-2.3l-0.7-2.7c1.5-0.6,3-1.3,4.4-2.2
						l1.7,2.2c0.6,0.8,1.8,1,2.6,0.3s1-1.8,0.3-2.6l-1.7-2.2c1.2-1.1,2.3-2.3,3.2-3.7l2.4,1.4c0.9,0.5,2.1,0.2,2.6-0.7
						s0.2-2.1-0.7-2.6l-2.4-1.4c0.7-1.5,1.2-3,1.5-4.6l2.8,0.4c1,0.1,2-0.6,2.1-1.6C341.3,197.2,340.5,196.2,339.5,196.1z
						 M300.9,185.5c1.2-1.8,3.7-2.3,5.5-1c1.8,1.2,2.3,3.7,1,5.6c-1.2,1.8-3.7,2.3-5.5,1C300.1,189.8,299.6,187.3,300.9,185.5z
						 M304.8,203.9c-2,0.9-4.4,0.1-5.3-1.9c-0.9-2-0.1-4.4,1.9-5.3c2-0.9,4.4-0.1,5.3,1.9C307.7,200.6,306.8,203,304.8,203.9z
						 M316.8,178.3c2.2,0.3,3.7,2.3,3.5,4.5c-0.3,2.2-2.3,3.7-4.5,3.5c-2.2-0.3-3.7-2.3-3.5-4.5C312.6,179.6,314.6,178,316.8,178.3z
						 M312.6,211.5c-2.2-0.3-3.7-2.3-3.5-4.5c0.3-2.2,2.3-3.7,4.5-3.5s3.7,2.3,3.5,4.5C316.8,210.3,314.8,211.8,312.6,211.5z
						 M314.1,199.8c-2.7-0.3-4.7-2.8-4.3-5.6s2.8-4.7,5.5-4.3s4.7,2.8,4.3,5.6C319.3,198.3,316.8,200.2,314.1,199.8z M324.6,185.9
						c2-0.9,4.4-0.1,5.3,1.9c0.9,2,0.1,4.4-1.9,5.3c-2,0.9-4.4,0.1-5.3-1.9C321.7,189.2,322.6,186.8,324.6,185.9z M328.5,204.4
						c-1.2,1.8-3.7,2.3-5.5,1c-1.8-1.2-2.3-3.7-1-5.6c1.2-1.8,3.7-2.3,5.5-1C329.3,200.1,329.8,202.5,328.5,204.4z"/>
				</g>
				<g>
					<polygon class="st9" points="339.2,147.9 334.6,144.8 340.3,136.4 344.9,139.5 					"/>
				</g>
				<g>
					<polygon class="st9" points="325,167.2 320.4,164.2 326.1,155.8 330.7,158.9 					"/>
				</g>
				<g>
					<polygon class="st9" points="337.3,158.6 340.3,154 348.7,159.7 345.6,164.3 					"/>
				</g>
				<g>
					<polygon class="st9" points="317.1,144.6 320.1,139.9 328.5,145.6 325.5,150.2 					"/>
				</g>
			</g>
		</g>
		<g>
			<rect x="208.9" y="70" class="st3" width="1.2" height="55.1"/>
			<path class="st12" d="M341.2,92.4c-9.3-2.9-27.7-25.9-47.8-25.9c-26,0-47.4,19.2-51,44.2C263.5,114.7,312.7,107.3,341.2,92.4z"/>
			<polygon class="st13" points="242.3,38.7 183.8,91.4 185.7,93.3 299.6,68 385.7,14.5 385.1,12.4 			"/>
			<polygon class="st14" points="242.3,38.7 244.2,40.6 185.7,93.3 183.8,91.4 			"/>
			<polygon class="st15" points="242.3,38.7 183.8,91.4 185.7,93.3 299.6,68 385.7,14.5 385.1,12.4 			"/>
			<polygon class="st4" points="244.2,40.6 185.7,93.3 301.5,69.9 385.7,14.5 			"/>
			<path class="st16" d="M236.1,47.9l-50.4,45.3l115.8-23.4l44.1-29C309.5,54.3,250.8,60.3,236.1,47.9z"/>
			<path class="st4" d="M323.8,42.1l12.8,47.8c0,0-42.6,19.4-93.7,18.1c-3.2-14.4-6.4-32.6-7.9-40.8C249.4,53.7,284,42.1,323.8,42.1
				z"/>
			<path class="st17" d="M208,135.2c-2.3,1-3.6,4.7-3.5,8.7c0.1,4-0.3,6.9-0.9,8.9c1.4,0.6,2.9,0.1,2.9,0.1s0.8-3.9,0.8-11
				c0.8,5.1,0.2,10.1-0.2,13c1.2,0.9,2,0.1,2,0.1s0.2-8.1,0.3-11.7c0.4,5.7,0.4,11.2,0.4,11.2s1.2,0.4,1.4-0.5c-0.1-3.8,0-7.1,0-7.1
				s0.5,5.5,0.7,6.5c1.1,0.4,2.8,0.3,3.2-0.4c-0.6-1.3-2.3-12.1-2.3-13.8c1.4,7,2.1,11.6,2.8,12.5c1.1,0.5,2.6-1.1,2.6-1.1
				s-0.9-0.3-1.2-2.6c-0.3-2.3-2.5-12.1-5-12.9C210.4,134.6,209,134.7,208,135.2z"/>
			<path class="st18" d="M214.1,137.9c-0.7-1.4-1.4-2.5-2.2-2.8c-1.5-0.5-2.9-0.4-3.9,0.1c-1.9,0.9-3.2,3.6-3.4,6.7
				C207,139.5,210.1,137.8,214.1,137.9z"/>
			<path class="st19" d="M208,135.2c-2.3,1-3.6,4.7-3.5,8.7c0.1,4-0.3,6.9-0.9,8.9c1.4,0.6,2.9,0.1,2.9,0.1s0.8-3.9,0.8-11
				c0.8,5.1,0.2,10.1-0.2,13c1.2,0.9,2,0.1,2,0.1s0.2-8.1,0.3-11.7c0.4,5.7,0.4,11.2,0.4,11.2s1.2,0.4,1.4-0.5c-0.1-3.8,0-7.1,0-7.1
				s0.5,5.5,0.7,6.5c1.1,0.4,2.8,0.3,3.2-0.4c-0.6-1.3-2.3-12.1-2.3-13.8c1.4,7,2.1,11.6,2.8,12.5c1.1,0.5,2.6-1.1,2.6-1.1
				s-0.9-0.3-1.2-2.6c-0.3-2.3-2.5-12.1-5-12.9C210.4,134.6,209,134.7,208,135.2z"/>
			<path class="st3" d="M211.6,136.4h-4.1c-0.6,0-1.2-0.5-1.2-1.2v-11c0-0.7,0.5-1.2,1.2-1.2h4.1c0.6,0,1.2,0.5,1.2,1.2v11
				C212.8,135.9,212.3,136.4,211.6,136.4z"/>
			<path class="st11" d="M324,47.6l11.1,41.3c0,0-18.7,8.1-33.6,10.8C317.6,82.5,324,47.6,324,47.6z"/>
			<path class="st11" d="M319,28l62.5-11.9L347,38.6C347,38.6,361.6,21.7,319,28z"/>
			<path class="st11" d="M240,87.9l3.9,19.4c0,0,17.3,0.4,30.9-2c-12.6,0.2-27.2,0-29.4-1.6C243.6,98.2,240,87.9,240,87.9z"/>
			<path class="st11" d="M243.9,102.1c0,0,27.4,3.2,47.9-2.4c-13.9,4.8-39.7,5.3-46.2,4.1C244.2,103.9,243.9,102.1,243.9,102.1z"/>
			<path class="st20" d="M324,42.9l-0.2-0.8C284,42.1,249.4,53.7,235,67.2c0.8,4.3,2,11.2,3.5,18.9C258.2,54,299.2,43.4,324,42.9z"
				/>
		</g>
	</g>
	<g>
		<path class="st21" d="M220.2,325.6l-8-50l-1.4-0.2l-28.6,42.3C182.1,317.8,194.5,345.5,220.2,325.6z"/>
		<path class="st22" d="M212.1,275.7l2.2,13.8c-2.9,1.6-7.6,2.9-11.8-2l8.1-12.1L212.1,275.7z"/>
		<path class="st23" d="M212.1,275.7l8,50c-5.9,4.5-11,6.6-15.5,7l6.1-57.2L212.1,275.7z"/>
		<path class="st24" d="M209.1,290.9l1.6-15.5l1.4,0.2l2.2,13.8C212.9,290.3,211.1,291,209.1,290.9z"/>
		<path class="st25" d="M220.2,325.6L179,472.2l-23.6-5.6l26.8-148.9c0,0,13.4-11.1,23,9.2C205.1,326.9,216.9,314,220.2,325.6z"/>
		<path class="st26" d="M155.3,466.6l26.8-148.9c0,0,13.4-11.1,23,9.2l-39.3,142.2L155.3,466.6z"/>
		<path class="st27" d="M179,472.2l-2.8,9.2c-0.8,2.5-3.4,4-6,3.4l-12.5-3c-2.5-0.6-4.2-3-3.8-5.6l1.4-9.7L179,472.2z"/>
		<path class="st28" d="M156.8,475.3c-0.8,5.1,10,8.9,17.4,8.8c-1.1,0.8-2.5,1.1-3.9,0.7l-12.5-3c-2.5-0.6-4.2-3-3.8-5.6l1.4-9.7
			l23.6,5.6C179,472.2,157.7,469.2,156.8,475.3z"/>
	</g>
	<g>
		<g>
			<g>
				<path class="st29" d="M360.1,415.6l47,18.9l58.2-144.9l-39.7-16c-4-1.6-8.6,0.3-10.2,4.4L360.1,415.6z"/>
				<g>
					
						<rect x="346.6" y="309.2" transform="matrix(0.1746 -0.9846 0.9846 0.1746 -10.384 697.4739)" class="st30" width="128.5" height="91.4"/>
					
						<rect x="419.3" y="284.3" transform="matrix(0.1746 -0.9846 0.9846 0.1746 46.4921 664.8177)" class="st31" width="0.9" height="40.8"/>
					
						<rect x="419.7" y="273.4" transform="matrix(0.1746 -0.9846 0.9846 0.1746 49.0932 663.3235)" class="st31" width="0.9" height="58"/>
					
						<rect x="417.7" y="279" transform="matrix(0.1746 -0.9846 0.9846 0.1746 35.7866 670.9807)" class="st31" width="0.9" height="70.3"/>
					
						<rect x="416.9" y="283.3" transform="matrix(0.1746 -0.9846 0.9846 0.1746 30.8766 673.8067)" class="st31" width="0.9" height="70.3"/>
					
						<rect x="415.3" y="292" transform="matrix(0.1746 -0.9846 0.9846 0.1746 21.0578 679.4591)" class="st31" width="0.9" height="70.3"/>
					
						<rect x="414.6" y="296.3" transform="matrix(0.1746 -0.9846 0.9846 0.1746 16.1588 682.2789)" class="st31" width="0.9" height="70.3"/>
					
						<rect x="413.8" y="300.7" transform="matrix(0.1746 -0.9846 0.9846 0.1746 11.2496 685.105)" class="st31" width="0.9" height="70.3"/>
					
						<rect x="410.4" y="319.8" transform="matrix(0.1746 -0.9846 0.9846 0.1746 -10.3371 697.5379)" class="st31" width="0.9" height="70.3"/>
					
						<rect x="409.6" y="324.3" transform="matrix(0.1746 -0.9846 0.9846 0.1746 -15.4371 700.4618)" class="st31" width="0.9" height="70.3"/>
					
						<rect x="408.8" y="328.8" transform="matrix(0.1746 -0.9846 0.9846 0.1746 -20.5186 703.3915)" class="st31" width="0.9" height="70.3"/>
					
						<rect x="408" y="333.3" transform="matrix(0.1746 -0.9846 0.9846 0.1746 -25.6147 706.3223)" class="st31" width="0.9" height="70.3"/>
					
						<rect x="407.2" y="337.8" transform="matrix(0.1746 -0.9846 0.9846 0.1746 -30.6978 709.249)" class="st31" width="0.9" height="70.3"/>
					
						<rect x="406.4" y="342.3" transform="matrix(0.1746 -0.9846 0.9846 0.1746 -35.7994 712.1707)" class="st31" width="0.9" height="70.3"/>
					
						<rect x="405.6" y="346.8" transform="matrix(0.1746 -0.9846 0.9846 0.1746 -40.8819 715.0981)" class="st31" width="0.9" height="70.3"/>
				</g>
				<g>
					
						<rect x="353.6" y="308.6" transform="matrix(0.2545 -0.9671 0.9671 0.2545 -31.1041 668.1862)" class="st32" width="128.5" height="91.4"/>
					
						<rect x="430.4" y="284.5" transform="matrix(0.2545 -0.9671 0.9671 0.2545 26.351 644.0016)" class="st31" width="0.9" height="40.8"/>
					
						<rect x="431" y="273.7" transform="matrix(0.2545 -0.9671 0.9671 0.2545 28.9522 642.899)" class="st31" width="0.9" height="58"/>
					
						<rect x="428" y="279.1" transform="matrix(0.2545 -0.9671 0.9671 0.2545 15.5222 648.5728)" class="st31" width="0.9" height="70.3"/>
					
						<rect x="426.8" y="283.3" transform="matrix(0.2545 -0.9671 0.9671 0.2545 10.5666 650.6665)" class="st31" width="0.9" height="70.3"/>
					
						<rect x="424.6" y="291.8" transform="matrix(0.2545 -0.9671 0.9671 0.2545 0.6432 654.8554)" class="st31" width="0.9" height="70.3"/>
					
						<rect x="423.5" y="296.1" transform="matrix(0.2545 -0.9671 0.9671 0.2545 -4.3035 656.9474)" class="st31" width="0.9" height="70.3"/>
					
						<rect x="422.4" y="300.4" transform="matrix(0.2545 -0.9671 0.9671 0.2545 -9.2623 659.0336)" class="st31" width="0.9" height="70.3"/>
					
						<rect x="417.4" y="319.1" transform="matrix(0.2545 -0.9671 0.9671 0.2545 -31.0672 668.248)" class="st31" width="0.9" height="70.3"/>
					
						<rect x="416.3" y="323.5" transform="matrix(0.2545 -0.9671 0.9671 0.2545 -36.2134 670.4178)" class="st31" width="0.9" height="70.3"/>
					
						<rect x="415.1" y="327.9" transform="matrix(0.2545 -0.9671 0.9671 0.2545 -41.3527 672.5739)" class="st31" width="0.9" height="70.3"/>
					
						<rect x="413.9" y="332.4" transform="matrix(0.2545 -0.9671 0.9671 0.2545 -46.4908 674.7622)" class="st31" width="0.9" height="70.3"/>
					
						<rect x="412.8" y="336.8" transform="matrix(0.2545 -0.9671 0.9671 0.2545 -51.6424 676.9199)" class="st31" width="0.9" height="70.3"/>
					
						<rect x="411.6" y="341.2" transform="matrix(0.2545 -0.9671 0.9671 0.2545 -56.7746 679.0913)" class="st31" width="0.9" height="70.3"/>
					
						<rect x="410.4" y="345.6" transform="matrix(0.2545 -0.9671 0.9671 0.2545 -61.92 681.2634)" class="st31" width="0.9" height="70.3"/>
				</g>
				<path class="st33" d="M378,422.8l94.6,38l55.2-137.4l-79.5-49.1c-4.5-2.8-10.3-0.8-12.3,4L378,422.8z"/>
			</g>
			<g>
				<path class="st26" d="M491.9,408.3l17.1-5c3-12.5,4.8-23.1,4.8-23.1c-20.7,0.8-36.6,7.2-48.9,16.2l-2.5,20.4l-5.5-13.7
					c-28.9,27.6-32.3,70.1-32.3,70.1s58.2-22.8,69.3-32.1c4.3-3.6,8.2-13.5,11.4-24.3C499.6,413.6,491.9,408.3,491.9,408.3z"/>
				<path class="st25" d="M513.8,380.2c0,0-68.1,53.4-89.1,93c0,0,58.2-22.8,69.3-32.1c4.3-3.6,8.2-13.5,11.4-24.3
					c-5.8-3.1-13.5-8.4-13.5-8.4l17.1-5C512,390.8,513.8,380.2,513.8,380.2z"/>
				<path class="st26" d="M525.5,432.6c-12.1-3.5-23.5-4-33.9-2.6c-2,4.5-4.4,9.8-4.4,9.8l-2.8-8.5c-39.3,8.8-64.4,43.6-64.4,43.6
					c26.4,8,46.6,6.7,62,1.1c0.1-3.3,0.2-8.1,0.2-8.1l4.7,6.2c7.2-3.2,13.2-7.4,18.2-11.8c-2.5-3.2-5.1-6.9-5.1-6.9l9.7,2.5
					C521.3,445.5,525.5,432.6,525.5,432.6z"/>
				<path class="st25" d="M482,476.1c0.1-3.3,0.2-8.1,0.2-8.1l4.7,6.2c7.2-3.2,13.2-7.4,18.2-11.8c-2.5-3.2-5.1-6.9-5.1-6.9l9.7,2.5
					c11.7-12.4,15.9-25.3,15.9-25.3c-46.6,7.1-105.4,42.4-105.4,42.4C446.4,483,466.7,481.7,482,476.1z"/>
			</g>
			<g>
				<path class="st34" d="M228.2,328.4h-6.5c1.1-0.7,2.4-1.2,3.8-1.2h162.1c8.5,0,15.4,6.1,15.4,13.6v8.6c0,7.5-6.9,13.6-15.4,13.6
					l-160.3,0L228.2,328.4z"/>
				<path class="st33" d="M389.5,349.5v-8.6c0-7.5-6.9-13.6-15.4-13.6h3.5c8.5,0,15.4,6.1,15.4,13.6v8.6c0,7.5-6.9,13.6-15.4,13.6
					h-3.4C382.6,363.1,389.5,357,389.5,349.5z"/>
				<path class="st33" d="M351.5,349.5v-8.6c0-7.5-6.9-13.6-15.4-13.6h3.5c8.5,0,15.4,6.1,15.4,13.6v8.6c0,7.5-6.9,13.6-15.4,13.6
					h-3.4C344.6,363.1,351.5,357,351.5,349.5z"/>
				<path class="st35" d="M320.3,327.3c8.1,0,14.7,5.8,14.7,13v9.8c0,7.2-6.6,13-14.7,13H219.3v-2.2h0.4l25.7-2.1l5.2-18
					c0,0-10-10-10.7-10.2c-0.6-0.3-20.2-1-20.2-1h-0.4v-2.2L320.3,327.3L320.3,327.3z"/>
				<path class="st32" d="M225.9,345.1c0-10.5-6.1-15.7-6.1-15.7h98.5c7.5,0,13.5,5.4,13.5,12v7.5c0,6.6-6,12-13.5,12h-98.5
					C219.7,360.9,225.9,358.4,225.9,345.1z"/>
				<path class="st36" d="M331.7,341.4v7.5c0,1-0.1,2-0.4,2.9c-3.3-7.2-9.7-14.1-21.8-16.4c-28.3-5.2-89.8-6-89.8-6h98.5
					C325.6,329.5,331.7,334.8,331.7,341.4z"/>
			</g>
			<g>
				<path class="st4" d="M230.9,400.1h-7.3c1.2-0.9,2.7-1.5,4.3-1.5h183.5c9.6,0,17.4,7.6,17.4,17v10.8c0,9.4-7.8,17-17.4,17
					L230,443.5L230.9,400.1z"/>
				<path class="st31" d="M335.1,398.7c9.2,0,16.6,7.3,16.6,16.3v12.2c0,9-7.4,16.3-16.6,16.3H220.8v-2.7h0.5l29-2.7l5.9-22.6
					c0,0-11.3-12.5-12.1-12.8c-0.7-0.3-22.8-1.3-22.8-1.3l-0.5,0v-2.7L335.1,398.7L335.1,398.7z"/>
				<path class="st32" d="M228.2,421c0-13.2-7-19.6-7-19.6h111.4c8.4,0,15.3,6.7,15.3,15v9.4c0,8.3-6.8,15-15.3,15H221.3
					C221.3,440.8,228.2,437.7,228.2,421z"/>
				<path class="st36" d="M348,416.4v9.4c0,1.2-0.2,2.4-0.5,3.6c-3.8-9-11-17.7-24.7-20.5c-32-6.5-101.6-7.5-101.6-7.5h111.4
					C341.2,401.4,348,408.1,348,416.4z"/>
			</g>
			<g>
				<path class="st37" d="M434.8,364.2h7.3c-1.2-0.7-2.7-1.1-4.3-1.1H254.3c-9.6,0-17.4,6-17.4,13.5v8.6c0,7.5,7.8,13.5,17.4,13.5
					l181.5,0L434.8,364.2z"/>
				<path class="st38" d="M330.6,363.1c-9.2,0-16.6,5.8-16.6,12.9v9.7c0,7.1,7.5,12.9,16.6,12.9h114.3v-2.2h-0.5l-29-2.1l-5.9-17.9
					c0,0,11.3-9.9,12.1-10.1c0.7-0.3,22.9-1,22.9-1h0.5v-2.2L330.6,363.1L330.6,363.1z"/>
				<path class="st32" d="M437.5,380.8c0-10.5,7-15.5,7-15.5H332.9c-8.4,0-15.3,5.3-15.3,11.9v7.5c0,6.6,6.8,11.9,15.3,11.9h111.5
					C444.4,396.5,437.5,394,437.5,380.8z"/>
				<path class="st36" d="M317.7,377.1v7.5c0,1,0.2,1.9,0.5,2.9c3.8-7.1,11-14,24.7-16.3c32-5.2,101.6-5.9,101.6-5.9H332.9
					C324.5,365.2,317.7,370.6,317.7,377.1z"/>
				<path class="st39" d="M270.5,385.1v-8.6c0-7.5,7.8-13.5,17.4-13.5h-17.4c-9.6,0-17.4,6-17.4,13.5v8.6c0,7.5,7.8,13.5,17.4,13.5
					h17.2C278.2,398.6,270.5,392.5,270.5,385.1z"/>
			</g>
			<path class="st33" d="M446.9,445h9.2c-1.5-0.8-3.4-1.3-5.4-1.3H220.5c-12,0-21.8,6.8-21.8,15.1v9.6c0,8.3,9.8,15.1,21.8,15.1
				l227.6,0L446.9,445z"/>
			<path class="st29" d="M316.3,443.7c-11.5,0-20.9,6.5-20.9,14.5V469c0,8,9.3,14.5,20.9,14.5h143.3V481h-0.6l-36.4-2.4l-7.4-20
				c0,0,14.2-11.1,15.1-11.3c0.9-0.3,28.6-1.1,28.6-1.1h0.6v-2.4L316.3,443.7L316.3,443.7z"/>
			<path class="st32" d="M450.2,463.5c0-11.7,8.7-17.4,8.7-17.4H319.2c-10.6,0-19.1,5.9-19.1,13.3v8.4c0,7.3,8.6,13.3,19.1,13.3H459
				C459,481,450.2,478.2,450.2,463.5z"/>
			<path class="st36" d="M300,459.4v8.4c0,1.1,0.2,2.2,0.6,3.2c4.7-8,13.8-15.7,31-18.2c40.1-5.8,127.4-6.6,127.4-6.6H319.2
				C308.6,446.1,300,452.1,300,459.4z"/>
			<path class="st40" d="M13.5,487.6h523.2c1.2,0,2.2-1,2.2-2.2l0,0c0-1.2-1-2.2-2.2-2.2H13.5c-1.2,0-2.2,1-2.2,2.2l0,0
				C11.3,486.6,12.3,487.6,13.5,487.6z"/>
			<polygon class="st29" points="511,338.5 446.6,301.7 437.9,318.9 503.8,353.8 			"/>
		</g>
	</g>
	<g>
		<g>
			<g>
				<polygon id="SVGID_3_" class="st41" points="84.5,482.6 41.3,482.6 37.2,442.3 88.7,442.3 				"/>
			</g>
			<g>
				<g>
					<defs>
						<polygon id="SVGID_4_" points="84.5,482.6 41.3,482.6 37.2,442.3 88.7,442.3 						"/>
					</defs>
					<clipPath id="SVGID_5_">
						<use xlink:href="#SVGID_4_"  style="overflow:visible;"/>
					</clipPath>
					<rect x="31.4" y="436.3" class="st42" width="63.1" height="12"/>
				</g>
			</g>
		</g>
		<path class="st25" d="M54.3,411.5c0.6,2.7,1.1,5.3,1.5,8c0.6,3.7,1,7.4,1.2,11.2c0.1,2.2,1,8.2-3.1,6.1c-4.8-2.4-8.1-7-11.2-11.4
			c-11.4-16.1-18-34.6-17.1-54.7c0-0.5,0.1-1.1,0.5-1.5c0.3-0.3,0.8-0.4,1.2-0.4c2.1-0.1,4,1,5.6,2.3c8.9,6.8,13.9,16.8,17.6,27.1
			C52,402.6,53.3,407,54.3,411.5z"/>
		<path class="st25" d="M76.1,397.5c-0.6,2.1-1.3,4.2-2.1,6.3c-1.1,2.8-2.2,5.6-3.5,8.4c-0.8,1.6-2.5,6.2-4.6,3.1
			c-2.4-3.6-3-8.1-3.5-12.4c-1.8-15.9,0.9-31.5,9.4-45.3c0.2-0.4,0.5-0.8,0.9-0.9c0.3-0.1,0.7,0,1,0.1c1.5,0.7,2.4,2.3,3.1,3.8
			c3.6,8.3,3.3,17.3,1.8,26C78,390.3,77.2,393.9,76.1,397.5z"/>
		<path class="st25" d="M87.8,430.8c-1.5,0.9-2.9,1.7-4.5,2.5c-2.1,1.1-4.2,2.1-6.4,3c-1.3,0.5-4.7,2.3-4.2-0.6
			c0.5-3.3,2.5-6.2,4.5-8.9c7.3-10,17-17.6,29.1-21.1c0.3-0.1,0.7-0.2,1,0c0.2,0.1,0.4,0.4,0.5,0.6c0.5,1.2,0.2,2.6-0.2,3.8
			c-2.3,6.6-7.2,11.6-12.6,15.9C92.6,427.6,90.2,429.3,87.8,430.8z"/>
		<path class="st25" d="M35.3,428.8c1.5,0.9,3,1.7,4.5,2.5c2.1,1.1,4.2,2.1,6.4,3c1.3,0.5,4.7,2.3,4.2-0.6c-0.5-3.3-2.5-6.2-4.5-8.9
			c-7.3-10-17-17.6-29.1-21.1c-0.3-0.1-0.7-0.2-1,0c-0.2,0.1-0.4,0.4-0.5,0.6c-0.5,1.2-0.2,2.6,0.2,3.8c2.3,6.6,7.2,11.6,12.6,15.9
			C30.5,425.7,32.8,427.3,35.3,428.8z"/>
		<path class="st26" d="M84.1,419c-1.3,2.4-2.8,4.7-4.3,7c-2.1,3.1-4.3,6.1-6.7,9c-1.4,1.7-4.8,6.7-6.4,2.4
			c-1.9-5-1.3-10.6-0.6-15.9c2.5-19.6,10.1-37.7,24.3-51.8c0.4-0.4,0.8-0.8,1.3-0.8c0.4,0,0.8,0.2,1.2,0.5c1.6,1.3,2.3,3.5,2.6,5.5
			c1.9,11-1.1,21.8-5.4,31.8C88.4,410.9,86.4,415,84.1,419z"/>
		<path class="st26" d="M67.3,412.6c0,2.7-0.2,5.5-0.4,8.2c-0.3,3.7-0.8,7.5-1.4,11.1c-0.4,2.2-0.9,8.2-4.4,5.2
			c-4.1-3.5-6.2-8.7-8.2-13.7c-7.3-18.4-9.4-37.9-3.8-57.1c0.2-0.5,0.3-1.1,0.8-1.4c0.4-0.2,0.8-0.2,1.2-0.1c2,0.3,3.7,1.9,5,3.5
			c7,8.7,9.6,19.6,10.7,30.5C67.2,403.4,67.4,408,67.3,412.6z"/>
		<polygon class="st6" points="93,442.3 32.8,442.3 31,430.3 94.9,430.3 		"/>
	</g>
	<g>
		<path class="st8" d="M403.1,245.6h-8.6v9.2h-5.8v-9.2h-8.5v-5.1h8.5v-9.2h5.8v9.2h8.6V245.6z"/>
	</g>
	<g>
		<g>
			<path class="st8" d="M426.6,114.3l-9.5,2.4l-16,4l-1.3-5.3l25.5-6.3L426.6,114.3z"/>
		</g>
		
			<ellipse transform="matrix(0.9705 -0.2409 0.2409 0.9705 -13.5869 102.1849)" class="st8" cx="411.1" cy="106.7" rx="3.7" ry="3.5"/>
		
			<ellipse transform="matrix(0.9705 -0.2409 0.2409 0.9705 -17.2658 103.5906)" class="st8" cx="415" cy="122.4" rx="3.7" ry="3.5"/>
	</g>
	<g>
		<path class="st8" d="M143.2,167.6l-5.7,5.7l6.2,6.2l-3.9,3.9l-6.2-6.2l-5.7,5.7l-3.4-3.4l5.7-5.7l-6.1-6.1l3.9-3.9l6.1,6.1
			l5.7-5.7L143.2,167.6z"/>
	</g>
	<g>
		<path class="st8" d="M57,265.4l-9.9,0.3l-16.5,0.5l-0.2-5.9l26.4-0.8L57,265.4z"/>
	</g>
	<g>
		<path class="st43" d="M503.8,81l-24.1,18.2c-0.5,0.4-1.3,0.3-1.7-0.2l-45.1-59.7c-0.4-0.5-0.3-1.3,0.2-1.7l24.1-18.2
			c0.5-0.4,1.3-0.3,1.7,0.2L504,79.3C504.4,79.8,504.3,80.6,503.8,81z"/>
		<line class="st43" x1="445.7" y1="28" x2="492.2" y2="89.7"/>
		<line class="st43" x1="441.4" y1="50.5" x2="467.4" y2="30.8"/>
		<line class="st43" x1="450.8" y1="62.9" x2="476.8" y2="43.2"/>
		<line class="st43" x1="460.1" y1="75.3" x2="486.2" y2="55.6"/>
		<line class="st43" x1="469.5" y1="87.7" x2="495.5" y2="68"/>
		<circle class="st8" cx="456.6" cy="29.4" r="4.1"/>
		<circle class="st8" cx="465.9" cy="41.7" r="4.1"/>
		<circle class="st8" cx="443.6" cy="39.3" r="4.1"/>
		<circle class="st8" cx="452.8" cy="51.6" r="4.1"/>
		<circle class="st8" cx="462.3" cy="64.1" r="4.1"/>
		<circle class="st8" cx="471.5" cy="76.4" r="4.1"/>
		<circle class="st8" cx="480.9" cy="88.8" r="4.1"/>
	</g>
	<g>
		<path class="st43" d="M197.4,254.1c-1.7,0.6-3.5-0.3-4.1-1.9L178,209.4c-0.6-1.7,0.3-3.5,1.9-4.1l20.8-7.4
			c1.7-0.6,3.5,0.3,4.1,1.9l15.3,42.8c0.6,1.7-0.3,3.5-1.9,4.1L197.4,254.1z"/>
		<g>
			<path class="st8" d="M209.9,223.6l-20.1,7.2c-0.6,0.2-1.3-0.1-1.5-0.7c-0.2-0.6,0.1-1.3,0.7-1.5l20.1-7.2
				c0.6-0.2,1.3,0.1,1.5,0.7C210.8,222.7,210.5,223.4,209.9,223.6z"/>
			<path class="st8" d="M209.9,223.6l-20.1,7.2c-0.6,0.2-1.3-0.1-1.5-0.7c-0.2-0.6,0.1-1.3,0.7-1.5l20.1-7.2
				c0.6-0.2,1.3,0.1,1.5,0.7S210.5,223.4,209.9,223.6z"/>
			<path class="st8" d="M209.9,223.6l-20.1,7.2c-0.6,0.2-1.2-0.1-1.4-0.7c-0.2-0.6,0.1-1.2,0.7-1.4l20.1-7.2
				c0.6-0.2,1.2,0.1,1.4,0.7C210.8,222.8,210.5,223.4,209.9,223.6z"/>
			<path class="st8" d="M209.9,223.6l-20.1,7.2c-0.6,0.2-1.2-0.1-1.4-0.7c-0.2-0.6,0.1-1.2,0.7-1.4l20.1-7.2
				c0.6-0.2,1.2,0.1,1.4,0.7S210.5,223.4,209.9,223.6z"/>
			<path class="st8" d="M209.9,223.6l-20.1,7.2c-0.6,0.2-1.2-0.1-1.4-0.7c-0.2-0.6,0.1-1.2,0.7-1.4l20.1-7.2
				c0.6-0.2,1.2,0.1,1.4,0.7C210.7,222.8,210.4,223.4,209.9,223.6z"/>
			<path class="st8" d="M209.9,223.6l-20.1,7.2c-0.6,0.2-1.2-0.1-1.4-0.6s0.1-1.2,0.6-1.4l20.1-7.2c0.6-0.2,1.2,0.1,1.4,0.6
				S210.4,223.4,209.9,223.6z"/>
			<path class="st8" d="M209.9,223.6l-20.1,7.2c-0.5,0.2-1.1-0.1-1.3-0.6c-0.2-0.5,0.1-1.1,0.6-1.3l20.1-7.2
				c0.5-0.2,1.1,0.1,1.3,0.6C210.7,222.8,210.4,223.4,209.9,223.6z"/>
			<path class="st8" d="M209.9,223.6l-20.1,7.2c-0.5,0.2-1.1-0.1-1.3-0.6s0.1-1.1,0.6-1.3l20.1-7.2c0.5-0.2,1.1,0.1,1.3,0.6
				C210.7,222.8,210.4,223.4,209.9,223.6z"/>
			<path class="st8" d="M209.9,223.6l-20.1,7.2c-0.5,0.2-1.1-0.1-1.3-0.6c-0.2-0.5,0.1-1.1,0.6-1.3l20.1-7.2
				c0.5-0.2,1.1,0.1,1.3,0.6C210.7,222.8,210.4,223.4,209.9,223.6z"/>
			<path class="st8" d="M209.9,223.6l-20.1,7.2c-0.5,0.2-1.1-0.1-1.3-0.6c-0.2-0.5,0.1-1.1,0.6-1.3l20.1-7.2
				c0.5-0.2,1.1,0.1,1.3,0.6C210.6,222.8,210.4,223.4,209.9,223.6z"/>
			<path class="st8" d="M209.9,223.5l-20.1,7.2c-0.5,0.2-1.1-0.1-1.2-0.6s0.1-1.1,0.6-1.2l20.1-7.2c0.5-0.2,1.1,0.1,1.2,0.6
				C210.6,222.8,210.4,223.4,209.9,223.5z"/>
			<path class="st8" d="M209.9,223.5l-20.1,7.2c-0.5,0.2-1-0.1-1.2-0.6c-0.2-0.5,0.1-1,0.6-1.2l20.1-7.2c0.5-0.2,1,0.1,1.2,0.6
				C210.6,222.8,210.4,223.4,209.9,223.5z"/>
			<path class="st8" d="M209.9,223.5l-20.1,7.2c-0.5,0.2-1-0.1-1.2-0.6s0.1-1,0.6-1.2l20.1-7.2c0.5-0.2,1,0.1,1.2,0.6
				C210.6,222.8,210.3,223.4,209.9,223.5z"/>
			<path class="st8" d="M209.9,223.5l-20.1,7.2c-0.5,0.2-1-0.1-1.2-0.6s0.1-1,0.6-1.2l20.1-7.2c0.5-0.2,1,0.1,1.2,0.6
				C210.6,222.8,210.3,223.4,209.9,223.5z"/>
			<path class="st8" d="M209.9,223.5l-20.1,7.2c-0.5,0.2-1-0.1-1.1-0.5c-0.2-0.5,0.1-1,0.5-1.1l20.1-7.2c0.5-0.2,1,0.1,1.1,0.5
				C210.6,222.8,210.3,223.3,209.9,223.5z"/>
			<path class="st8" d="M209.9,223.5l-20.1,7.2c-0.4,0.2-0.9-0.1-1.1-0.5s0.1-0.9,0.5-1.1l20.1-7.2c0.4-0.2,0.9,0.1,1.1,0.5
				C210.5,222.8,210.3,223.3,209.9,223.5z"/>
			<path class="st8" d="M209.9,223.5l-20.1,7.2c-0.4,0.2-0.9-0.1-1.1-0.5c-0.2-0.4,0.1-0.9,0.5-1.1l20.1-7.2
				c0.4-0.2,0.9,0.1,1.1,0.5C210.5,222.9,210.3,223.3,209.9,223.5z"/>
			<path class="st8" d="M209.8,223.5l-20.1,7.2c-0.4,0.1-0.9-0.1-1.1-0.5c-0.1-0.4,0.1-0.9,0.5-1.1l20.1-7.2
				c0.4-0.1,0.9,0.1,1.1,0.5C210.5,222.9,210.3,223.3,209.8,223.5z"/>
			<path class="st8" d="M209.8,223.5l-20.1,7.2c-0.4,0.1-0.9-0.1-1-0.5s0.1-0.9,0.5-1l20.1-7.2c0.4-0.1,0.9,0.1,1,0.5
				S210.3,223.3,209.8,223.5z"/>
			<path class="st8" d="M209.8,223.5l-20.1,7.2c-0.4,0.1-0.9-0.1-1-0.5c-0.1-0.4,0.1-0.9,0.5-1l20.1-7.2c0.4-0.1,0.9,0.1,1,0.5
				S210.2,223.3,209.8,223.5z"/>
			<path class="st8" d="M209.8,223.5l-20.1,7.2c-0.4,0.1-0.8-0.1-1-0.5c-0.1-0.4,0.1-0.8,0.5-1l20.1-7.2c0.4-0.1,0.8,0.1,1,0.5
				C210.4,222.9,210.2,223.3,209.8,223.5z"/>
			<path class="st8" d="M209.8,223.4l-20.1,7.2c-0.4,0.1-0.8-0.1-0.9-0.4s0.1-0.8,0.4-0.9l20.1-7.2c0.4-0.1,0.8,0.1,0.9,0.4
				S210.2,223.3,209.8,223.4z"/>
			<path class="st8" d="M209.8,223.4l-20.1,7.2c-0.4,0.1-0.8-0.1-0.9-0.4c-0.1-0.4,0.1-0.8,0.4-0.9l20.1-7.2
				c0.4-0.1,0.8,0.1,0.9,0.4C210.4,222.9,210.2,223.3,209.8,223.4z"/>
			<path class="st8" d="M209.8,223.4l-20.1,7.2c-0.4,0.1-0.8-0.1-0.9-0.4c-0.1-0.4,0.1-0.8,0.4-0.9l20.1-7.2
				c0.4-0.1,0.8,0.1,0.9,0.4C210.4,222.9,210.2,223.3,209.8,223.4z"/>
			<path class="st8" d="M209.8,223.4l-20.1,7.2c-0.4,0.1-0.8-0.1-0.9-0.4c-0.1-0.4,0.1-0.8,0.4-0.9l20.1-7.2
				c0.4-0.1,0.8,0.1,0.9,0.4C210.4,222.9,210.2,223.3,209.8,223.4z"/>
			<path class="st8" d="M209.8,223.4l-20.1,7.2c-0.4,0.1-0.7-0.1-0.9-0.4c-0.1-0.4,0.1-0.7,0.4-0.9l20.1-7.2
				c0.4-0.1,0.7,0.1,0.9,0.4C210.4,222.9,210.2,223.3,209.8,223.4z"/>
			<path class="st8" d="M209.8,223.4l-20.1,7.2c-0.3,0.1-0.7-0.1-0.8-0.4s0.1-0.7,0.4-0.8l20.1-7.2c0.3-0.1,0.7,0.1,0.8,0.4
				C210.3,222.9,210.2,223.3,209.8,223.4z"/>
			<path class="st8" d="M209.8,223.4l-20.1,7.2c-0.3,0.1-0.7-0.1-0.8-0.4c-0.1-0.3,0.1-0.7,0.4-0.8l20.1-7.2
				c0.3-0.1,0.7,0.1,0.8,0.4C210.3,222.9,210.1,223.3,209.8,223.4z"/>
			<path class="st8" d="M209.8,223.4l-20.1,7.2c-0.3,0.1-0.7-0.1-0.8-0.4c-0.1-0.3,0.1-0.7,0.4-0.8l20.1-7.2
				c0.3-0.1,0.7,0.1,0.8,0.4C210.3,222.9,210.1,223.3,209.8,223.4z"/>
			<path class="st8" d="M209.8,223.4l-20.1,7.2c-0.3,0.1-0.6-0.1-0.8-0.4s0.1-0.6,0.4-0.8l20.1-7.2c0.3-0.1,0.6,0.1,0.8,0.4
				S210.1,223.3,209.8,223.4z"/>
			<path class="st8" d="M209.8,223.4l-20.1,7.2c-0.3,0.1-0.6-0.1-0.7-0.3c-0.1-0.3,0.1-0.6,0.3-0.7l20.1-7.2
				c0.3-0.1,0.6,0.1,0.7,0.3C210.3,222.9,210.1,223.3,209.8,223.4z"/>
			<path class="st8" d="M209.8,223.4l-20.1,7.2c-0.3,0.1-0.6-0.1-0.7-0.3c-0.1-0.3,0.1-0.6,0.3-0.7l20.1-7.2
				c0.3-0.1,0.6,0.1,0.7,0.3C210.2,223,210.1,223.3,209.8,223.4z"/>
			<path class="st8" d="M209.8,223.4l-20.1,7.2c-0.3,0.1-0.6,0-0.7-0.3c-0.1-0.3,0-0.6,0.3-0.7l20.1-7.2c0.3-0.1,0.6,0,0.7,0.3
				C210.2,223,210.1,223.3,209.8,223.4z"/>
			<path class="st8" d="M209.8,223.4l-20.1,7.2c-0.3,0.1-0.6,0-0.6-0.3c-0.1-0.3,0-0.6,0.3-0.6l20.1-7.2c0.3-0.1,0.6,0,0.6,0.3
				C210.2,223,210.1,223.3,209.8,223.4z"/>
			<path class="st8" d="M209.8,223.4l-20.1,7.2c-0.3,0.1-0.5,0-0.6-0.3s0-0.5,0.3-0.6l20.1-7.2c0.3-0.1,0.5,0,0.6,0.3
				C210.2,223,210.1,223.3,209.8,223.4z"/>
			<path class="st8" d="M209.8,223.3l-20.1,7.2c-0.2,0.1-0.5,0-0.6-0.3c-0.1-0.2,0-0.5,0.3-0.6l20.1-7.2c0.2-0.1,0.5,0,0.6,0.3
				C210.2,223,210,223.3,209.8,223.3z"/>
			<path class="st8" d="M209.8,223.3l-20.1,7.2c-0.2,0.1-0.5,0-0.6-0.3c-0.1-0.2,0-0.5,0.3-0.6l20.1-7.2c0.2-0.1,0.5,0,0.6,0.3
				C210.1,223,210,223.3,209.8,223.3z"/>
			<path class="st8" d="M209.8,223.3l-20.1,7.2c-0.2,0.1-0.5,0-0.5-0.3c-0.1-0.2,0-0.5,0.3-0.5l20.1-7.2c0.2-0.1,0.5,0,0.5,0.3
				C210.1,223,210,223.2,209.8,223.3z"/>
			<path class="st8" d="M209.8,223.3l-20.1,7.2c-0.2,0.1-0.4,0-0.5-0.3c-0.1-0.2,0-0.4,0.3-0.5l20.1-7.2c0.2-0.1,0.4,0,0.5,0.3
				C210.1,223,210,223.2,209.8,223.3z"/>
			<path class="st8" d="M209.8,223.3l-20.1,7.2c-0.2,0.1-0.4,0-0.5-0.2s0-0.4,0.2-0.5l20.1-7.2c0.2-0.1,0.4,0,0.5,0.2
				C210.1,223,210,223.2,209.8,223.3z"/>
			<path class="st8" d="M209.8,223.3l-20.1,7.2c-0.2,0.1-0.4,0-0.5-0.2s0-0.4,0.2-0.5l20.1-7.2c0.2-0.1,0.4,0,0.5,0.2
				C210.1,223,210,223.2,209.8,223.3z"/>
			<path class="st8" d="M209.8,223.3l-20.1,7.2c-0.2,0.1-0.4,0-0.4-0.2c-0.1-0.2,0-0.4,0.2-0.4l20.1-7.2c0.2-0.1,0.4,0,0.4,0.2
				C210.1,223,210,223.2,209.8,223.3z"/>
			<path class="st8" d="M209.8,223.3l-20.1,7.2c-0.2,0.1-0.4,0-0.4-0.2s0-0.4,0.2-0.4l20.1-7.2c0.2-0.1,0.4,0,0.4,0.2
				S209.9,223.2,209.8,223.3z"/>
			<path class="st8" d="M209.8,223.3l-20.1,7.2c-0.2,0.1-0.3,0-0.4-0.2c-0.1-0.2,0-0.3,0.2-0.4l20.1-7.2c0.2-0.1,0.3,0,0.4,0.2
				C210,223,209.9,223.2,209.8,223.3z"/>
			<path class="st8" d="M209.8,223.3l-20.1,7.2c-0.1,0.1-0.3,0-0.4-0.2c-0.1-0.1,0-0.3,0.2-0.4l20.1-7.2c0.1-0.1,0.3,0,0.4,0.2
				C210,223.1,209.9,223.2,209.8,223.3z"/>
			<path class="st8" d="M209.8,223.3l-20.1,7.2c-0.1,0.1-0.3,0-0.3-0.2s0-0.3,0.2-0.3l20.1-7.2c0.1-0.1,0.3,0,0.3,0.2
				C210,223.1,209.9,223.2,209.8,223.3z"/>
			<path class="st8" d="M209.8,223.3l-20.1,7.2c-0.1,0.1-0.3,0-0.3-0.1c-0.1-0.1,0-0.3,0.1-0.3l20.1-7.2c0.1-0.1,0.3,0,0.3,0.1
				C210,223.1,209.9,223.2,209.8,223.3z"/>
			<path class="st8" d="M209.8,223.2l-20.1,7.2c-0.1,0-0.3,0-0.3-0.1s0-0.3,0.1-0.3l20.1-7.2c0.1,0,0.3,0,0.3,0.1
				C209.9,223.1,209.9,223.2,209.8,223.2z"/>
			<path class="st8" d="M209.8,223.2l-20.1,7.2c-0.1,0-0.2,0-0.3-0.1c0-0.1,0-0.2,0.1-0.3l20.1-7.2c0.1,0,0.2,0,0.3,0.1
				C209.9,223.1,209.9,223.2,209.8,223.2z"/>
			<path class="st8" d="M209.8,223.2l-20.1,7.2c-0.1,0-0.2,0-0.2-0.1c0-0.1,0-0.2,0.1-0.2l20.1-7.2c0.1,0,0.2,0,0.2,0.1
				C209.9,223.1,209.9,223.2,209.8,223.2z"/>
			<path class="st8" d="M209.8,223.2l-20.1,7.2c-0.1,0-0.2,0-0.2-0.1c0-0.1,0-0.2,0.1-0.2l20.1-7.2c0.1,0,0.2,0,0.2,0.1
				C209.9,223.1,209.8,223.2,209.8,223.2z"/>
			<path class="st8" d="M209.7,223.2l-20.1,7.2c-0.1,0-0.2,0-0.2-0.1s0-0.2,0.1-0.2l20.1-7.2c0.1,0,0.2,0,0.2,0.1
				S209.8,223.2,209.7,223.2z"/>
		</g>
		<g>
			<path class="st8" d="M187.4,208c0.4,1.2-0.2,2.4-1.4,2.9c-1.2,0.4-2.4-0.2-2.9-1.4c-0.4-1.2,0.2-2.4,1.4-2.9
				C185.7,206.2,187,206.8,187.4,208z"/>
			<path class="st8" d="M201.4,202.9c0.4,1.2-0.2,2.4-1.4,2.9c-1.2,0.4-2.4-0.2-2.9-1.4c-0.4-1.2,0.2-2.4,1.4-2.9
				C199.7,201.2,201,201.8,201.4,202.9z"/>
			<path class="st8" d="M192.4,222c0.4,1.2-0.2,2.4-1.4,2.9c-1.2,0.4-2.4-0.2-2.9-1.4c-0.4-1.2,0.2-2.4,1.4-2.9
				C190.7,220.3,192,220.9,192.4,222z"/>
			<path class="st8" d="M206.5,217c0.4,1.2-0.2,2.4-1.4,2.9c-1.2,0.4-2.4-0.2-2.9-1.4c-0.4-1.2,0.2-2.4,1.4-2.9
				C204.8,215.2,206,215.8,206.5,217z"/>
		</g>
		<g>
			<path class="st8" d="M196.6,233.8c0.4,1.2-0.2,2.4-1.4,2.9c-1.2,0.4-2.4-0.2-2.9-1.4c-0.4-1.2,0.2-2.4,1.4-2.9
				C194.9,232,196.2,232.6,196.6,233.8z"/>
			<path class="st8" d="M210.7,228.7c0.4,1.2-0.2,2.4-1.4,2.9c-1.2,0.4-2.4-0.2-2.9-1.4c-0.4-1.2,0.2-2.4,1.4-2.9
				C209,227,210.2,227.6,210.7,228.7z"/>
			<path class="st8" d="M199.1,240.8c0.4,1.2-0.2,2.4-1.4,2.9c-1.2,0.4-2.4-0.2-2.9-1.4c-0.4-1.2,0.2-2.4,1.4-2.9
				C197.4,239,198.7,239.6,199.1,240.8z"/>
			<path class="st8" d="M213.2,235.8c0.4,1.2-0.2,2.4-1.4,2.9c-1.2,0.4-2.4-0.2-2.9-1.4c-0.4-1.2,0.2-2.4,1.4-2.9
				C211.5,234,212.7,234.6,213.2,235.8z"/>
			<path class="st8" d="M201.6,247.8c0.4,1.2-0.2,2.4-1.4,2.9c-1.2,0.4-2.4-0.2-2.9-1.4c-0.4-1.2,0.2-2.4,1.4-2.9
				C199.9,246,201.2,246.6,201.6,247.8z"/>
			<path class="st8" d="M215.7,242.8c0.4,1.2-0.2,2.4-1.4,2.9c-1.2,0.4-2.4-0.2-2.9-1.4c-0.4-1.2,0.2-2.4,1.4-2.9
				C214,241,215.3,241.6,215.7,242.8z"/>
		</g>
	</g>
	<g>
		
			<rect x="476.5" y="203.6" transform="matrix(0.1143 -0.9934 0.9934 0.1143 199.0025 711.6401)" class="st44" width="44.1" height="81.2"/>
		<g>
			<g>
				<path class="st43" d="M471.7,260.1l-9.1-1c-1.5-0.2-2.7-1.6-2.5-3.1l3.7-32c0.2-1.6,1.6-2.7,3.1-2.5l9.1,1.1
					c1.5,0.2,2.7,1.6,2.5,3.1l-3.7,32C474.6,259.2,473.2,260.3,471.7,260.1z"/>
				<polygon class="st43" points="470.8,226 471.7,228.6 474.5,229.4 472.2,231.1 472.4,233.9 470.1,232.3 467.4,233.3 468.2,230.6 
					466.4,228.4 469.3,228.4 				"/>
				<polygon class="st43" points="469.7,236.9 470.6,239.6 473.4,240.3 471.1,242.1 471.3,244.9 469,243.3 466.3,244.3 467.1,241.6 
					465.3,239.4 468.2,239.3 				"/>
				<polygon class="st43" points="468.7,248 469.6,250.7 472.4,251.4 470.1,253.1 470.3,255.9 468,254.3 465.3,255.4 466.1,252.6 
					464.3,250.5 467.2,250.4 				"/>
			</g>
			<g>
				<path class="st43" d="M491.3,262.4l-9.1-1c-1.5-0.2-2.7-1.6-2.5-3.1l3.7-32c0.2-1.6,1.6-2.7,3.1-2.5l9.1,1.1
					c1.5,0.2,2.7,1.6,2.5,3.1l-3.7,32C494.2,261.5,492.8,262.6,491.3,262.4z"/>
				<polygon class="st43" points="490.4,228.2 491.3,230.9 494,231.6 491.8,233.3 492,236.1 489.6,234.6 487,235.6 487.8,232.9 
					486,230.7 488.8,230.6 				"/>
				<polygon class="st43" points="489.3,239.2 490.2,241.9 492.9,242.6 490.7,244.3 490.9,247.1 488.5,245.5 485.9,246.6 
					486.7,243.8 484.9,241.7 487.7,241.6 				"/>
				<polygon class="st43" points="488.3,250.3 489.2,252.9 491.9,253.6 489.7,255.4 489.9,258.2 487.5,256.6 484.9,257.6 
					485.7,254.9 483.9,252.7 486.7,252.6 				"/>
			</g>
			<g>
				<path class="st43" d="M510.8,264.6l-9.1-1c-1.5-0.2-2.7-1.6-2.5-3.1l3.7-32c0.2-1.6,1.6-2.7,3.1-2.5l9.1,1.1
					c1.5,0.2,2.7,1.6,2.5,3.1l-3.7,32C513.7,263.7,512.3,264.8,510.8,264.6z"/>
				<polygon class="st43" points="509.9,230.5 510.8,233.1 513.5,233.9 511.3,235.6 511.5,238.4 509.1,236.8 506.5,237.8 
					507.3,235.1 505.5,232.9 508.3,232.8 				"/>
				<polygon class="st43" points="508.8,241.4 509.7,244.1 512.4,244.8 510.2,246.6 510.4,249.4 508,247.8 505.4,248.8 506.2,246.1 
					504.4,243.9 507.2,243.8 				"/>
				<polygon class="st43" points="507.8,252.5 508.7,255.2 511.4,255.9 509.2,257.6 509.4,260.4 507,258.8 504.4,259.9 505.2,257.1 
					503.4,254.9 506.2,254.9 				"/>
			</g>
			<g>
				<path class="st43" d="M530.3,266.9l-9.1-1c-1.5-0.2-2.7-1.6-2.5-3.1l3.7-32c0.2-1.6,1.6-2.7,3.1-2.5l9.1,1.1
					c1.5,0.2,2.7,1.6,2.5,3.1l-3.7,32C533.3,266,531.9,267.1,530.3,266.9z"/>
				<polygon class="st43" points="529.4,232.7 530.4,235.4 533.1,236.1 530.9,237.8 531,240.6 528.7,239.1 526.1,240.1 526.9,237.4 
					525.1,235.2 527.9,235.1 				"/>
				<polygon class="st43" points="528.3,243.7 529.3,246.4 532,247.1 529.8,248.8 529.9,251.6 527.6,250 525,251.1 525.8,248.3 
					524,246.1 526.8,246.1 				"/>
				<polygon class="st43" points="527.3,254.8 528.3,257.4 531,258.1 528.8,259.9 528.9,262.7 526.6,261.1 524,262.1 524.8,259.4 
					523,257.2 525.8,257.1 				"/>
			</g>
		</g>
	</g>
	<g>
		<path class="st45" d="M151,83.3c-0.1,2.9-0.2,5.8-0.5,8.6c-0.1,0.7-0.2,1.3-0.3,1.9c-0.1,0.5-0.4,0.9-0.8,1.3
			c-0.7,0.8-1.4,1.5-2.2,2.2c-2.9,2.7-5.8,5.3-8.9,7.7c-0.8,0.6-1.7,1.3-2.7,1.7c-0.2,0.1-0.5,0.2-0.8,0.2c-0.9-0.1-1.8-0.2-2.6-0.5
			c-5.9-1.5-11.5-3.5-17-6.1c-0.3-0.1-0.6-0.3-0.8-0.4c-1.1-0.6-1.7-1.4-2-2.6c-0.3-1.3-0.5-2.5-0.7-3.8c-0.4-2.9-0.9-5.8-1.3-8.7
			c-0.2-1.7-0.3-3.5-0.5-5.2c0-0.2,0-0.4,0-0.5c0-0.8,0.2-1.5,0.8-2c0.9-0.7,1.7-1.4,2.6-2c3-2.1,6.3-3.7,9.6-5.2
			c1.3-0.6,2.6-1.1,3.9-1.7c0.7-0.3,1.4-0.4,2.2-0.3c1,0.1,2,0.2,3,0.3c3.8,0.4,7.4,1.2,11.1,2.1c2,0.5,4,1.2,6.1,1.8
			c0.6,0.2,1,0.6,1.1,1.2c0.1,0.9,0.3,1.7,0.4,2.6C150.8,78.4,150.9,80.9,151,83.3z M150.5,84.1c0-4-0.1-7-0.5-10
			c-0.1-0.4-0.2-0.8-0.3-1.3c-0.1-0.2-0.2-0.3-0.4-0.4c-0.5-0.2-1.1-0.3-1.6-0.5c-4.2-1.3-8.5-2.3-12.8-3.1
			c-1.2-0.2-2.4-0.4-3.6-0.5c-1.1-0.1-2.1-0.2-3.2-0.2c-0.2,0-0.4,0-0.6,0.1c-1.6,0.7-3.2,1.4-4.8,2.1c-3.3,1.5-6.5,3.2-9.5,5.3
			c-0.9,0.6-1.7,1.4-2.6,2c-0.2,0.2-0.3,0.4-0.3,0.7c0,0.7,0,1.3,0.1,2c0.2,2.1,0.4,4.3,0.7,6.4c0.4,3.2,0.9,6.3,1.4,9.4
			c0.1,0.7,0.3,1.3,0.5,2c0.1,0.4,0.4,0.7,0.8,0.9c0.6,0.3,1.3,0.7,1.9,1c4.8,2.3,9.8,4.1,14.9,5.6c1.3,0.4,2.6,0.8,4,0.9
			c0.3,0,0.6,0,0.9-0.2c0.8-0.5,1.6-1,2.4-1.6c1.3-1,2.5-2,3.8-3.1c2.4-2.1,4.7-4.2,7-6.3c0.3-0.3,0.6-0.6,0.9-1
			c0.2-0.2,0.3-0.5,0.3-0.8c0.1-1.1,0.3-2.2,0.3-3.3C150.3,87.9,150.4,85.5,150.5,84.1z"/>
		<path class="st45" d="M133.1,84.2c-0.2,0-0.4,0-0.6-0.1c-6.6-1.4-13.2-3-19.7-4.8c-0.4-0.1-0.8-0.3-1.2-0.4
			c-0.1,0-0.2-0.1-0.3-0.2c0.1-0.3,0.2-0.2,0.4-0.1c0.9,0.2,1.8,0.4,2.7,0.7c6,1.7,12,3.1,18,4.5c0.2,0,0.4,0.1,0.6,0.1
			c0.1,0,0.1,0.1,0.2,0.2C133.2,84.1,133.1,84.2,133.1,84.2z"/>
		<path class="st8" d="M127.6,92.2c-0.8,0-1.4-0.2-1.9-0.5c-1.1-0.6-1.7-1.8-1.5-3.1s1.2-2.1,2.5-2.3c1.8-0.3,3.5,1,3.4,3.2
			c0,0.8-0.3,1.6-1,2.2C128.6,92.1,128,92.2,127.6,92.2z M127.2,86.8c-1.2,0-2.2,0.7-2.4,1.7c-0.3,1.1,0.2,2.3,1.2,2.9
			c0.3,0.2,0.6,0.2,0.8,0.3c0.7,0.3,1.3,0.1,1.9-0.3c0.9-0.6,1.2-1.9,0.8-3.1C129.1,87.3,128.3,86.8,127.2,86.8z"/>
		<path class="st45" d="M135.5,105.5c-0.4-0.9-1.8-18.8-1.6-19.7c0.2,0.1,0.2,0.2,0.2,0.4c0.1,0.7,0.1,1.3,0.2,2
			c0.2,2.3,0.3,4.5,0.5,6.7c0.1,1.8,0.3,3.6,0.5,5.4c0.1,1.5,0.3,3,0.4,4.6C135.7,105.1,135.8,105.3,135.5,105.5z"/>
		<path class="st45" d="M134.4,83.4c0.1-0.1,0.2-0.3,0.4-0.4c0.5-0.4,1.1-0.8,1.6-1.2c3.9-2.8,7.9-5.7,11.9-8.5
			c0.2-0.1,0.3-0.3,0.5-0.4c0.1,0,0.2,0,0.3-0.1c-0.1,0.3-0.4,0.4-0.5,0.6c-1.9,1.4-3.9,2.9-5.8,4.3c-2.6,1.8-5.1,3.6-7.7,5.4
			c-0.2,0.1-0.4,0.2-0.5,0.3C134.5,83.5,134.5,83.5,134.4,83.4z"/>
		<path class="st8" d="M141.2,84.5c0,1.1-0.4,2.1-1.4,2.8c-0.8,0.6-1.8,0.6-2.5,0c-0.4-0.4-0.6-0.9-0.6-1.5c0-1.2,0.5-2.3,1.5-3
			c0.5-0.4,1.1-0.6,1.8-0.3c0.7,0.4,1.2,0.9,1.2,1.8C141.2,84.3,141.2,84.4,141.2,84.5z M137.2,85.6c0,0.2,0,0.4,0.1,0.6
			c0.3,0.9,1.1,1.3,1.9,0.9c0.1,0,0.2-0.1,0.2-0.1c0.9-0.6,1.5-2,1.3-3.1c-0.3-1.2-1.2-1.5-2.2-0.8
			C137.6,83.7,137.2,84.5,137.2,85.6z"/>
		<path class="st8" d="M114.6,95c0-0.2,0-0.4,0.1-0.6c0.3-1.3,1.5-2,2.7-1.6c1.3,0.4,2.2,1.8,1.9,3c-0.1,0.8-0.6,1.5-1.3,1.8
			c-0.6,0.3-1.3,0.3-1.9,0C115.1,97.1,114.7,96.2,114.6,95z M117.3,97.4c0.2-0.1,0.5-0.1,0.7-0.2c0.5-0.4,0.8-0.9,0.9-1.6
			c0.2-1.2-1-2.4-2-2.5c-0.7-0.1-1.3,0.2-1.6,0.8c-0.5,0.8-0.4,1.6,0,2.4C115.8,97,116.5,97.4,117.3,97.4z"/>
		<path class="st8" d="M137.6,92.2c0-0.8,0.3-1.6,0.7-2.2c0.4-0.6,1-0.9,1.7-1.1c0.7-0.1,1.5,0.4,1.8,1.1c0.1,0.3,0.2,0.6,0.1,0.9
			c-0.1,1.3-0.6,2.4-1.7,3.1c-1.1,0.8-2.3,0.1-2.5-1C137.7,92.8,137.6,92.5,137.6,92.2z M138.1,92.3c0,0.2,0,0.5,0.1,0.7
			c0.2,0.9,1,1.2,1.7,0.7c0.3-0.2,0.7-0.5,0.9-0.8c0.3-0.4,0.4-0.9,0.6-1.4s0.1-0.9-0.1-1.4c-0.3-0.7-0.8-0.9-1.5-0.7
			c-0.5,0.1-0.8,0.4-1.1,0.8C138.3,90.8,138.1,91.5,138.1,92.3z"/>
		<path class="st8" d="M148.3,78.2c-0.1,1.1-0.3,2-0.8,2.7c-0.5,0.7-1.3,1-2.1,0.7c-0.8-0.3-1.3-0.9-1.3-1.8
			c-0.1-1.3,0.5-2.3,1.4-3.1c0.3-0.3,0.7-0.4,1.1-0.4c0.6-0.1,1.2,0.2,1.4,0.8C148.2,77.6,148.2,78,148.3,78.2z M147.8,78.3
			c0-0.2-0.1-0.4-0.1-0.7c-0.1-0.8-0.6-0.9-1.2-0.8c-0.2,0-0.4,0.1-0.6,0.3c-0.8,0.5-1.5,1.9-1.4,2.8c0.1,0.7,0.6,1.3,1.3,1.4
			c0.6,0.1,1.2-0.2,1.5-0.9C147.6,79.8,147.8,79.1,147.8,78.3z"/>
		<path class="st8" d="M138.5,98.8c0.1-0.7,0.3-1.6,0.9-2.3c0.7-0.8,1.9-0.9,2.6-0.1c0.2,0.2,0.4,0.6,0.4,0.9
			c0.1,1.2-0.3,2.3-1.2,3.2c-0.2,0.2-0.4,0.3-0.6,0.4c-0.7,0.3-1.3,0.1-1.7-0.5C138.6,99.8,138.5,99.4,138.5,98.8z M138.9,99
			c0,0.2,0,0.4,0.1,0.6c0.2,0.9,0.9,1.2,1.6,0.6c0.7-0.5,1-1.2,1.2-1.9c0.1-0.4,0.1-0.9,0-1.3c-0.2-0.7-0.8-1-1.5-0.7
			c-0.3,0.1-0.6,0.3-0.8,0.6C139.1,97.5,139,98.2,138.9,99z"/>
		<path class="st8" d="M148.9,85.5c0,0.7-0.2,1.3-0.6,1.9c-0.3,0.4-0.6,0.7-1.1,0.9c-0.8,0.3-1.5,0-1.8-0.7
			c-0.2-0.4-0.3-0.9-0.2-1.4c0.1-0.8,0.4-1.5,0.9-2.2c0.4-0.5,1-0.8,1.7-0.7c0.2,0,0.4,0.2,0.6,0.3
			C148.7,84.2,148.9,84.8,148.9,85.5z M148.5,85.6c-0.1-0.4-0.1-0.8-0.2-1.2c-0.2-0.7-0.6-0.9-1.3-0.6c-0.3,0.2-0.6,0.4-0.8,0.6
			c-0.4,0.5-0.6,1.1-0.6,1.7c0,0.4,0.1,0.8,0.2,1.2c0.2,0.6,0.7,0.7,1.3,0.5c0.4-0.2,0.7-0.5,0.9-0.8
			C148.3,86.6,148.4,86.1,148.5,85.6z"/>
		<path class="st8" d="M148.9,92.2c-0.1,1.2-0.4,2.2-1.3,2.8c-0.7,0.5-1.5,0.3-2-0.5c-0.1-0.2-0.3-0.5-0.3-0.8
			c-0.1-1,0.1-1.9,0.7-2.7c0.1-0.1,0.2-0.3,0.3-0.3c0.9-0.7,1.6-0.6,2.3,0.6C148.9,91.5,148.9,91.9,148.9,92.2z M148.5,92.4
			c0-0.8-0.3-1.3-0.7-1.7c-0.1-0.2-0.3-0.2-0.5-0.1c-0.4,0.1-0.6,0.3-0.9,0.6c-0.5,0.7-0.7,1.4-0.6,2.2c0,0.3,0.1,0.7,0.3,0.9
			c0.3,0.4,0.7,0.6,1.2,0.3c0.3-0.2,0.5-0.4,0.6-0.6C148.3,93.5,148.4,92.9,148.5,92.4z"/>
		<path class="st8" d="M130.9,73.2c0.4,0,0.9,0.1,1.2,0.3c0.5,0.3,0.8,0.9,0.6,1.5c-0.3,0.8-0.9,1.3-1.6,1.5
			c-0.7,0.3-1.5,0.2-2.2-0.1c-0.2-0.1-0.3-0.1-0.5-0.2c-0.5-0.4-0.7-0.9-0.4-1.4c0.1-0.2,0.3-0.4,0.4-0.6
			C129.2,73.6,130,73.3,130.9,73.2z M131,73.6c-1,0.1-1.8,0.4-2.4,1.1c-0.4,0.5-0.3,1,0.3,1.3c0.4,0.2,0.8,0.2,1.2,0.3
			c0.7,0.1,1.9-0.6,2.1-1.3c0.2-0.5,0.1-0.9-0.4-1.2C131.5,73.7,131.2,73.7,131,73.6z"/>
		<path class="st8" d="M132.2,81.9c-0.2,0-0.4-0.1-0.6-0.1c-1.1-0.3-1.5-1.2-1-2.2c0.5-0.9,1.2-1.2,2.2-1.3c0.3,0,0.5,0,0.8,0.1
			c0.6,0.1,1.1,0.5,1.3,1c0.2,0.5,0.1,1.1-0.3,1.5C133.9,81.6,133.1,81.9,132.2,81.9z M133,78.8c-0.2,0-0.4,0-0.6,0
			c-0.7,0.1-1.3,0.5-1.6,1.2c-0.2,0.6,0,1.1,0.6,1.3c0.8,0.3,2.1-0.1,2.6-0.8c0.3-0.4,0.3-0.9,0-1.3C133.9,78.9,133.5,78.7,133,78.8
			z"/>
		<path class="st8" d="M129.2,68.8c0.2,0.1,0.5,0.1,0.8,0.2c0.7,0.3,0.9,1.2,0.5,1.9c-0.1,0.2-0.2,0.3-0.4,0.4
			c-0.8,0.7-1.8,0.9-2.8,0.7c-1-0.2-1.3-1.1-0.7-1.9C127.2,69.2,128.1,68.8,129.2,68.8z M127.9,71.6c0.8,0,1.5-0.3,2-0.8
			c0.1-0.1,0.2-0.3,0.3-0.4c0.1-0.6-0.2-1-0.9-1.1c-0.8-0.1-1.5,0.2-2.1,0.7c-0.3,0.3-0.6,0.7-0.4,1.1
			C127,71.6,127.5,71.6,127.9,71.6z"/>
		<path class="st8" d="M127.2,86.8c1.1,0,1.9,0.6,2.3,1.6c0.4,1.1,0.1,2.4-0.8,3.1c-0.6,0.4-1.2,0.6-1.9,0.3
			c-0.3-0.1-0.6-0.2-0.8-0.3c-1-0.6-1.5-1.8-1.2-2.9C125,87.4,126,86.8,127.2,86.8z"/>
		<path class="st8" d="M137.2,85.6c0.1-1.1,0.5-1.9,1.3-2.6c1-0.7,1.9-0.3,2.2,0.8c0.3,1.1-0.3,2.5-1.3,3.1
			c-0.1,0.1-0.1,0.1-0.2,0.1c-0.9,0.4-1.7,0-1.9-0.9C137.2,86,137.2,85.8,137.2,85.6z"/>
		<path class="st8" d="M117.3,97.4c-0.9,0-1.5-0.4-1.9-1.2c-0.4-0.8-0.5-1.6,0-2.4c0.3-0.6,0.9-0.8,1.6-0.8c1,0.1,2.2,1.3,2,2.5
			c-0.1,0.7-0.4,1.2-0.9,1.6C117.9,97.4,117.6,97.4,117.3,97.4z"/>
		<path class="st8" d="M138.1,92.3c0-0.8,0.2-1.5,0.6-2.1c0.3-0.4,0.6-0.7,1.1-0.8c0.7-0.2,1.2,0.1,1.5,0.7c0.2,0.5,0.3,0.9,0.1,1.4
			c-0.2,0.5-0.3,0.9-0.6,1.4c-0.2,0.3-0.5,0.6-0.9,0.8c-0.8,0.5-1.5,0.2-1.7-0.7C138.1,92.8,138.1,92.5,138.1,92.3z"/>
		<path class="st8" d="M147.8,78.3c0,0.8-0.2,1.5-0.5,2.1c-0.4,0.7-0.9,1-1.5,0.9c-0.6-0.1-1.2-0.7-1.3-1.4
			c-0.1-0.9,0.6-2.4,1.4-2.8c0.2-0.1,0.4-0.2,0.6-0.3c0.6-0.1,1.1,0,1.2,0.8C147.8,77.9,147.8,78.1,147.8,78.3z"/>
		<path class="st8" d="M138.9,99c0.1-0.8,0.2-1.5,0.6-2.1c0.2-0.3,0.4-0.5,0.8-0.6c0.7-0.2,1.3,0,1.5,0.7c0.1,0.4,0.1,0.9,0,1.3
			c-0.2,0.8-0.5,1.4-1.2,1.9c-0.8,0.5-1.4,0.3-1.6-0.6C138.9,99.3,138.9,99.1,138.9,99z"/>
		<path class="st8" d="M148.5,85.6c-0.1,0.5-0.2,1-0.4,1.5c-0.2,0.4-0.5,0.7-0.9,0.8c-0.6,0.2-1.1,0.1-1.3-0.5
			c-0.1-0.4-0.2-0.8-0.2-1.2c0-0.6,0.2-1.2,0.6-1.7c0.2-0.3,0.5-0.5,0.8-0.6c0.6-0.3,1.1-0.1,1.3,0.6
			C148.4,84.8,148.4,85.2,148.5,85.6z"/>
		<path class="st8" d="M148.5,92.4c0,0.5-0.2,1.1-0.6,1.6c-0.2,0.2-0.4,0.5-0.6,0.6c-0.4,0.3-0.9,0.2-1.2-0.3
			c-0.2-0.3-0.3-0.6-0.3-0.9c-0.1-0.8,0.2-1.6,0.6-2.2c0.2-0.3,0.5-0.5,0.9-0.6c0.2-0.1,0.3,0,0.5,0.1
			C148.2,91.2,148.5,91.7,148.5,92.4z"/>
		<path class="st8" d="M131,73.6c0.2,0.1,0.5,0.1,0.8,0.2c0.5,0.2,0.6,0.7,0.4,1.2c-0.3,0.7-1.4,1.4-2.1,1.3
			c-0.4-0.1-0.8-0.1-1.2-0.3c-0.6-0.3-0.8-0.7-0.3-1.3C129.2,74,130,73.7,131,73.6z"/>
		<path class="st8" d="M133,78.8c0.5-0.1,0.9,0.1,1.1,0.5c0.3,0.4,0.3,0.9,0,1.3c-0.5,0.7-1.8,1-2.6,0.8c-0.6-0.2-0.9-0.7-0.6-1.3
			c0.3-0.7,0.8-1.1,1.6-1.2C132.7,78.8,132.9,78.8,133,78.8z"/>
		<path class="st8" d="M127.9,71.6c-0.4,0-0.9-0.1-1.1-0.6s0.1-0.8,0.4-1.1c0.6-0.5,1.3-0.8,2.1-0.7c0.7,0.1,1,0.5,0.9,1.1
			c-0.1,0.2-0.1,0.3-0.3,0.4C129.4,71.4,128.7,71.6,127.9,71.6z"/>
	</g>
	<g>
		<path class="st43" d="M420.3,185.2c0,0,3-27.8,30-14c0,0,4.1-28.3,30.4-13.4c0,0-0.3-12.3,11-17.5c4.5-2.1,13.1-3.7,19.8,3.5"/>
		<line class="st43" x1="415.4" y1="193.6" x2="527" y2="142.2"/>
		<g class="st46">
			<path class="st8" d="M426.1,194.4c0.1,0.3,0.2,0.5,0.3,0.8c0,0.2,0,0.4,0,0.6s-0.1,0.3-0.2,0.5s-0.3,0.2-0.4,0.3
				c-0.2,0.1-0.3,0.1-0.5,0.1s-0.3,0-0.5-0.1s-0.3-0.2-0.5-0.4c-0.2-0.2-0.3-0.4-0.4-0.7s-0.2-0.5-0.3-0.8c0-0.2,0-0.4,0-0.6
				c0-0.2,0.1-0.3,0.2-0.5c0.1-0.1,0.3-0.2,0.4-0.3s0.3-0.1,0.5-0.1s0.4,0,0.5,0.1c0.2,0.1,0.3,0.2,0.5,0.4
				C425.9,193.9,426,194.1,426.1,194.4z M425.6,194.6c-0.1-0.2-0.2-0.4-0.3-0.6c-0.1-0.1-0.2-0.2-0.3-0.3c-0.1-0.1-0.2-0.1-0.3-0.1
				s-0.2,0-0.3,0.1c-0.1,0-0.1,0.1-0.2,0.2c-0.1,0.1-0.1,0.2-0.1,0.3c0,0.1,0,0.3,0,0.4c0,0.2,0.1,0.4,0.2,0.6
				c0.1,0.2,0.2,0.4,0.3,0.6c0.1,0.1,0.2,0.2,0.3,0.3c0.1,0.1,0.2,0.1,0.3,0.1s0.2,0,0.3-0.1c0.1,0,0.1-0.1,0.2-0.2s0.1-0.2,0.1-0.3
				s0-0.3,0-0.4C425.7,195.1,425.7,194.9,425.6,194.6z"/>
			<path class="st8" d="M433.4,192.5l0.2,0.4l-1.8,0.8l-0.2-0.4l0.6-0.3l-0.9-1.9c0-0.1-0.1-0.1-0.1-0.2l-0.3,0.6c0,0,0,0.1-0.1,0.1
				c0,0,0,0-0.1,0c0,0,0,0-0.1,0c0,0,0,0-0.1,0l-0.3-0.2l0.6-1.3l0.5-0.2l1.3,2.8L433.4,192.5z"/>
			<path class="st8" d="M441.2,188.8c0.1,0,0.1,0,0.2,0c0,0,0.1,0.1,0.1,0.1l0.1,0.3l-2.2,1l-0.1-0.2c0,0,0-0.1,0-0.1s0-0.1,0-0.1
				l0.5-1.4c0-0.1,0.1-0.2,0.1-0.3c0-0.1,0-0.2,0.1-0.3s0-0.2,0-0.3c0-0.1,0-0.2-0.1-0.3c0-0.1-0.1-0.1-0.1-0.2
				c0-0.1-0.1-0.1-0.2-0.1s-0.1,0-0.2,0s-0.1,0-0.2,0.1c-0.1,0-0.1,0.1-0.2,0.1c0,0-0.1,0.1-0.1,0.1c0,0.1,0,0.1,0,0.2s0,0.1,0,0.2
				c0,0.1,0,0.1,0,0.2s-0.1,0.1-0.2,0.1l-0.3,0.1c0-0.2-0.1-0.3-0.1-0.5s0-0.3,0.1-0.4s0.1-0.2,0.3-0.3s0.2-0.2,0.4-0.2
				c0.1-0.1,0.3-0.1,0.4-0.1c0.1,0,0.3,0,0.4,0s0.2,0.1,0.3,0.2s0.2,0.2,0.3,0.3c0,0.1,0.1,0.2,0.1,0.4c0,0.1,0,0.2,0,0.4
				c0,0.1,0,0.2-0.1,0.4c0,0.1-0.1,0.3-0.1,0.4l-0.4,1.1c0.1-0.1,0.1-0.1,0.2-0.1c0.1,0,0.1-0.1,0.2-0.1L441.2,188.8z"/>
			<path class="st8" d="M446.4,184.2c0-0.2-0.1-0.3-0.1-0.5s0-0.3,0.1-0.4s0.1-0.2,0.3-0.3c0.1-0.1,0.2-0.2,0.4-0.2
				c0.1-0.1,0.3-0.1,0.4-0.1s0.3,0,0.4,0c0.1,0,0.2,0.1,0.3,0.2c0.1,0.1,0.2,0.2,0.2,0.3c0,0.1,0.1,0.2,0.1,0.3s0,0.2,0,0.3
				c0,0.1,0,0.1-0.1,0.2s-0.1,0.1-0.2,0.2c0.2,0,0.4,0,0.6,0.1s0.3,0.2,0.4,0.4c0.1,0.2,0.1,0.3,0.1,0.5s0,0.3-0.1,0.4
				s-0.1,0.3-0.3,0.4c-0.1,0.1-0.2,0.2-0.4,0.3c-0.2,0.1-0.3,0.1-0.5,0.1s-0.3,0-0.4,0c-0.1,0-0.2-0.1-0.4-0.2
				c-0.1-0.1-0.2-0.2-0.3-0.3l0.2-0.2c0-0.1,0.1-0.1,0.2-0.1s0.1,0,0.2,0c0,0,0.1,0.1,0.2,0.1c0.1,0,0.1,0.1,0.2,0.1
				c0.1,0,0.1,0,0.2,0c0.1,0,0.1,0,0.2-0.1c0.1,0,0.2-0.1,0.2-0.2s0.1-0.1,0.1-0.2c0-0.1,0-0.1,0-0.2s0-0.1,0-0.2
				c0-0.1-0.1-0.1-0.1-0.2c0-0.1-0.1-0.1-0.2-0.1c-0.1,0-0.2,0-0.3,0s-0.2,0.1-0.4,0.1l-0.2-0.4c0.1-0.1,0.2-0.1,0.3-0.2
				c0.1-0.1,0.1-0.1,0.2-0.2c0-0.1,0-0.1,0-0.2c0-0.1,0-0.1-0.1-0.2c-0.1-0.1-0.2-0.3-0.3-0.3s-0.3,0-0.4,0c-0.1,0-0.1,0.1-0.2,0.1
				c0,0-0.1,0.1-0.1,0.1c0,0.1,0,0.1-0.1,0.2s0,0.1,0,0.2c0,0.1,0,0.1,0,0.2s-0.1,0.1-0.2,0.1L446.4,184.2z"/>
			<path class="st8" d="M457.1,180.6l0.1,0.3c0,0,0,0.1,0,0.1c0,0,0,0.1-0.1,0.1l-0.3,0.1l0.4,0.8l-0.5,0.2l-0.4-0.8l-1.4,0.6
				c0,0-0.1,0-0.1,0c0,0-0.1,0-0.1-0.1l-0.2-0.3l0.6-2.7l0.5-0.2l0.9,2L457.1,180.6z M456.3,181l-0.5-1.1c0-0.1-0.1-0.2-0.1-0.3
				l-0.4,1.8L456.3,181z"/>
			<path class="st8" d="M462.1,177.3c0.1-0.1,0.1-0.1,0.2-0.1c0.1,0,0.1-0.1,0.2-0.1c0.2-0.1,0.3-0.1,0.5-0.1c0.1,0,0.3,0,0.4,0.1
				s0.2,0.1,0.3,0.2s0.2,0.2,0.2,0.4c0.1,0.2,0.1,0.3,0.1,0.5c0,0.2,0,0.3-0.1,0.5s-0.1,0.3-0.3,0.4c-0.1,0.1-0.3,0.2-0.4,0.3
				c-0.1,0.1-0.2,0.1-0.3,0.1s-0.2,0-0.3,0c-0.1,0-0.2,0-0.3,0c-0.1,0-0.2,0-0.3-0.1l0.1-0.3c0-0.1,0-0.1,0.1-0.1c0,0,0.1,0,0.1,0
				c0,0,0.1,0,0.2,0c0.1,0,0.1,0,0.2,0c0.1,0,0.2,0,0.3-0.1c0.1-0.1,0.2-0.1,0.2-0.2c0.1-0.1,0.1-0.1,0.1-0.2c0-0.1,0-0.2,0-0.3
				s0-0.2-0.1-0.3c-0.1-0.2-0.2-0.3-0.3-0.3s-0.3,0-0.5,0.1c-0.1,0.1-0.3,0.2-0.4,0.3l-0.4,0.1l-0.5-1.7l1.6-0.7l0.1,0.2
				c0,0.1,0,0.1,0,0.2s-0.1,0.1-0.2,0.2l-0.9,0.4L462.1,177.3z"/>
			<path class="st8" d="M470.3,173.5l0,0.2c0-0.1,0.1-0.1,0.2-0.2c0.1-0.1,0.1-0.1,0.2-0.1c0.1-0.1,0.3-0.1,0.4-0.1
				c0.1,0,0.3,0,0.4,0s0.2,0.1,0.4,0.2c0.1,0.1,0.2,0.2,0.3,0.4c0.1,0.1,0.1,0.3,0.1,0.5s0,0.3-0.1,0.4c0,0.1-0.1,0.3-0.3,0.4
				s-0.3,0.2-0.4,0.3c-0.2,0.1-0.3,0.1-0.5,0.1c-0.2,0-0.3,0-0.5-0.1c-0.1-0.1-0.3-0.1-0.4-0.3c-0.1-0.1-0.2-0.3-0.3-0.4
				c-0.1-0.1-0.1-0.3-0.1-0.5c0-0.2,0-0.4,0.1-0.6l0.3-1.4c0-0.1,0-0.1,0.1-0.1c0-0.1,0.1-0.1,0.2-0.1l0.5-0.2L470.3,173.5z
				 M471.2,175.1c0.1,0,0.2-0.1,0.2-0.1s0.1-0.1,0.1-0.2s0-0.2,0-0.3s0-0.2-0.1-0.3c0-0.1-0.1-0.2-0.2-0.2c-0.1-0.1-0.1-0.1-0.2-0.1
				s-0.2,0-0.2,0s-0.2,0-0.3,0.1c-0.1,0-0.2,0.1-0.2,0.1s-0.1,0.1-0.1,0.2s0,0.2,0,0.2c0,0.1,0,0.2,0.1,0.3c0,0.1,0.1,0.2,0.1,0.2
				c0.1,0.1,0.1,0.1,0.2,0.1s0.1,0,0.2,0C471,175.1,471.1,175.1,471.2,175.1z"/>
			<path class="st8" d="M479,168.1l0.1,0.2c0,0.1,0,0.1,0.1,0.2c0,0.1,0,0.1,0,0.1l-0.1,3.1c0,0.1,0,0.1,0,0.2
				c0,0.1-0.1,0.1-0.2,0.1l-0.4,0.2l0.1-3c0-0.1,0-0.1,0-0.2c0-0.1,0-0.1,0-0.2l-1.5,0.7c0,0-0.1,0-0.1,0c0,0-0.1,0-0.1-0.1
				l-0.2-0.4L479,168.1z"/>
			<path class="st8" d="M486.1,166.7c0.2,0,0.4,0,0.6,0.1c0.1,0.1,0.3,0.2,0.4,0.4c0.1,0.1,0.1,0.3,0.1,0.4s0,0.3-0.1,0.4
				c-0.1,0.1-0.1,0.2-0.3,0.4s-0.3,0.2-0.4,0.3c-0.2,0.1-0.3,0.1-0.5,0.1s-0.3,0-0.4,0c-0.1,0-0.3-0.1-0.4-0.2s-0.2-0.2-0.3-0.4
				c-0.1-0.2-0.1-0.4-0.1-0.6s0.1-0.3,0.3-0.5c-0.2,0-0.3,0-0.5-0.1c-0.1-0.1-0.2-0.2-0.3-0.4c-0.1-0.1-0.1-0.3-0.1-0.4
				s0-0.3,0.1-0.4s0.1-0.2,0.2-0.3s0.2-0.2,0.4-0.3s0.3-0.1,0.4-0.1c0.1,0,0.3,0,0.4,0c0.1,0,0.2,0.1,0.3,0.2
				c0.1,0.1,0.2,0.2,0.2,0.3c0.1,0.2,0.1,0.3,0.1,0.5C486.3,166.4,486.2,166.6,486.1,166.7z M485,165.8c-0.1,0-0.1,0.1-0.2,0.1
				c0,0.1-0.1,0.1-0.1,0.2c0,0.1,0,0.1,0,0.2c0,0.1,0,0.1,0,0.2s0.1,0.1,0.1,0.2c0,0.1,0.1,0.1,0.1,0.1s0.1,0,0.2,0.1
				c0.1,0,0.2,0,0.2-0.1s0.2-0.1,0.2-0.1c0-0.1,0.1-0.1,0.1-0.2c0-0.1,0-0.1,0-0.2c0-0.1,0-0.1-0.1-0.2c0-0.1-0.1-0.1-0.1-0.2
				c0-0.1-0.1-0.1-0.1-0.1c-0.1,0-0.1,0-0.2,0C485.1,165.8,485.1,165.8,485,165.8z M486.1,168.3c0.1,0,0.2-0.1,0.2-0.1
				s0.1-0.1,0.1-0.2c0-0.1,0-0.1,0-0.2c0-0.1,0-0.1-0.1-0.2c-0.1-0.2-0.2-0.3-0.3-0.3c-0.1-0.1-0.3,0-0.5,0.1s-0.3,0.2-0.3,0.3
				s0,0.3,0,0.5c0,0.1,0.1,0.1,0.1,0.2c0,0.1,0.1,0.1,0.2,0.1s0.1,0,0.2,0S486,168.3,486.1,168.3z"/>
			<path class="st8" d="M493.9,163.7c0,0,0-0.1,0-0.1s0-0.1,0-0.1c0,0.1-0.1,0.1-0.2,0.2c-0.1,0.1-0.2,0.1-0.3,0.2
				c-0.1,0.1-0.2,0.1-0.4,0.1s-0.3,0-0.4,0c-0.1,0-0.2-0.1-0.3-0.2c-0.1-0.1-0.2-0.2-0.3-0.4c-0.1-0.1-0.1-0.3-0.1-0.4
				s0-0.3,0.1-0.4c0-0.1,0.1-0.3,0.2-0.4c0.1-0.1,0.3-0.2,0.4-0.3c0.2-0.1,0.3-0.1,0.5-0.1c0.2,0,0.3,0,0.4,0.1s0.3,0.1,0.4,0.2
				s0.2,0.2,0.3,0.4c0,0.1,0.1,0.2,0.1,0.3c0,0.1,0,0.2,0,0.3c0,0.1,0,0.2,0,0.3c0,0.1,0,0.2,0,0.3l-0.3,1.4c0,0.1,0,0.1-0.1,0.1
				s-0.1,0.1-0.1,0.1l-0.5,0.2L493.9,163.7z M492.7,163c0.1,0.2,0.2,0.3,0.3,0.4s0.3,0,0.5,0c0.1,0,0.2-0.1,0.2-0.1s0.1-0.1,0.1-0.2
				c0-0.1,0-0.1,0-0.2s0-0.2-0.1-0.2c0-0.1-0.1-0.2-0.1-0.2s-0.1-0.1-0.2-0.1c-0.1,0-0.1,0-0.2,0c-0.1,0-0.2,0-0.2,0.1
				c-0.1,0-0.1,0.1-0.2,0.1c0,0.1-0.1,0.1-0.1,0.2s0,0.1,0,0.2C492.6,162.8,492.6,162.9,492.7,163z"/>
			<path class="st8" d="M500.9,161.4l0.2,0.4l-1.8,0.8l-0.2-0.4l0.6-0.3l-0.9-1.9c0-0.1-0.1-0.1-0.1-0.2l-0.3,0.6c0,0,0,0.1-0.1,0.1
				c0,0,0,0-0.1,0c0,0,0,0-0.1,0c0,0,0,0-0.1,0l-0.3-0.2l0.6-1.3l0.5-0.2l1.3,2.8L500.9,161.4z"/>
			<path class="st8" d="M503.1,159c0.1,0.3,0.2,0.5,0.3,0.8c0,0.2,0,0.4,0,0.6c0,0.2-0.1,0.3-0.2,0.5c-0.1,0.1-0.3,0.2-0.4,0.3
				c-0.2,0.1-0.3,0.1-0.5,0.1s-0.3,0-0.5-0.1c-0.2-0.1-0.3-0.2-0.5-0.4s-0.3-0.4-0.4-0.7c-0.1-0.3-0.2-0.5-0.3-0.8
				c0-0.2,0-0.4,0-0.6c0-0.2,0.1-0.3,0.2-0.5c0.1-0.1,0.3-0.2,0.4-0.3s0.3-0.1,0.5-0.1s0.4,0,0.5,0.1c0.2,0.1,0.3,0.2,0.5,0.4
				C502.8,158.5,503,158.7,503.1,159z M502.5,159.2c-0.1-0.2-0.2-0.4-0.3-0.6c-0.1-0.1-0.2-0.2-0.3-0.3c-0.1-0.1-0.2-0.1-0.3-0.1
				s-0.2,0-0.3,0.1c-0.1,0-0.1,0.1-0.2,0.2c-0.1,0.1-0.1,0.2-0.1,0.3c0,0.1,0,0.3,0,0.4c0,0.2,0.1,0.4,0.2,0.6
				c0.1,0.2,0.2,0.4,0.3,0.6c0.1,0.1,0.2,0.2,0.3,0.3c0.1,0.1,0.2,0.1,0.3,0.1s0.2,0,0.3-0.1c0.1,0,0.1-0.1,0.2-0.2s0.1-0.2,0.1-0.3
				s0-0.3,0-0.4C502.7,159.7,502.6,159.5,502.5,159.2z"/>
			<path class="st8" d="M509.3,157.6l0.2,0.4l-1.8,0.8l-0.2-0.4l0.6-0.3l-0.9-1.9c0-0.1-0.1-0.1-0.1-0.2l-0.3,0.6c0,0,0,0.1-0.1,0.1
				c0,0,0,0-0.1,0c0,0,0,0-0.1,0c0,0,0,0-0.1,0l-0.3-0.2l0.6-1.3l0.5-0.2l1.3,2.8L509.3,157.6z"/>
			<path class="st8" d="M511.9,156.4l0.2,0.4l-1.8,0.8l-0.2-0.4l0.6-0.3l-0.9-1.9c0-0.1-0.1-0.1-0.1-0.2l-0.3,0.6c0,0,0,0.1-0.1,0.1
				c0,0,0,0-0.1,0c0,0,0,0-0.1,0c0,0,0,0-0.1,0l-0.3-0.2l0.6-1.3l0.5-0.2l1.3,2.8L511.9,156.4z"/>
			<path class="st8" d="M516.6,154.2l0.2,0.4l-1.8,0.8l-0.2-0.4l0.7-0.3l-0.9-1.9c0-0.1-0.1-0.1-0.1-0.2l-0.3,0.6c0,0,0,0.1-0.1,0.1
				c0,0,0,0-0.1,0c0,0,0,0-0.1,0c0,0,0,0-0.1,0l-0.3-0.2l0.6-1.3l0.5-0.2l1.3,2.8L516.6,154.2z"/>
			<path class="st8" d="M519,153c0.1,0,0.1,0,0.2,0c0,0,0.1,0.1,0.1,0.1l0.2,0.3l-2.2,1l-0.1-0.2c0,0,0-0.1,0-0.1s0-0.1,0-0.1
				l0.5-1.4c0-0.1,0.1-0.2,0.1-0.3c0-0.1,0-0.2,0.1-0.3s0-0.2,0-0.3c0-0.1,0-0.2-0.1-0.3c0-0.1-0.1-0.1-0.1-0.2s-0.1-0.1-0.2-0.1
				s-0.1,0-0.2,0s-0.1,0-0.2,0.1c-0.1,0-0.1,0.1-0.2,0.1s-0.1,0.1-0.1,0.1c0,0.1,0,0.1,0,0.2c0,0.1,0,0.1,0,0.2c0,0.1,0,0.1,0,0.2
				c0,0-0.1,0.1-0.2,0.1l-0.3,0.1c0-0.2-0.1-0.3-0.1-0.5s0-0.3,0.1-0.4c0.1-0.1,0.1-0.2,0.3-0.3s0.2-0.2,0.4-0.2
				c0.2-0.1,0.3-0.1,0.4-0.1c0.1,0,0.3,0,0.4,0s0.2,0.1,0.3,0.2c0.1,0.1,0.2,0.2,0.3,0.3c0,0.1,0.1,0.2,0.1,0.4c0,0.1,0,0.2,0,0.4
				c0,0.1,0,0.2-0.1,0.4s-0.1,0.3-0.1,0.4l-0.4,1.1c0.1-0.1,0.1-0.1,0.2-0.1c0.1,0,0.1-0.1,0.2-0.1L519,153z"/>
			<path class="st8" d="M523.9,150.9l0.2,0.4l-1.8,0.8l-0.2-0.4l0.7-0.3l-0.9-1.9c0-0.1-0.1-0.1-0.1-0.2l-0.3,0.6c0,0,0,0.1-0.1,0.1
				c0,0,0,0-0.1,0s0,0-0.1,0c0,0,0,0-0.1,0l-0.3-0.2l0.6-1.3l0.5-0.2l1.3,2.8L523.9,150.9z"/>
			<path class="st8" d="M523.6,148.7c0-0.2-0.1-0.3-0.1-0.5s0-0.3,0.1-0.4c0.1-0.1,0.1-0.2,0.3-0.3s0.2-0.2,0.4-0.2
				c0.2-0.1,0.3-0.1,0.4-0.1s0.3,0,0.4,0s0.2,0.1,0.3,0.2c0.1,0.1,0.2,0.2,0.2,0.3c0,0.1,0.1,0.2,0.1,0.3s0,0.2,0,0.3
				c0,0.1,0,0.1-0.1,0.2c0,0.1-0.1,0.1-0.2,0.2c0.2,0,0.4,0,0.6,0.1s0.3,0.2,0.4,0.4c0.1,0.2,0.1,0.3,0.1,0.5s0,0.3-0.1,0.4
				s-0.2,0.3-0.3,0.4s-0.2,0.2-0.4,0.3c-0.2,0.1-0.3,0.1-0.5,0.1s-0.3,0-0.4,0s-0.2-0.1-0.3-0.2c-0.1-0.1-0.2-0.2-0.3-0.3l0.2-0.2
				c0-0.1,0.1-0.1,0.2-0.1s0.1,0,0.2,0c0,0,0.1,0.1,0.2,0.1c0.1,0,0.1,0.1,0.2,0.1c0.1,0,0.1,0,0.2,0s0.2,0,0.2-0.1
				c0.1,0,0.2-0.1,0.2-0.2c0.1-0.1,0.1-0.1,0.1-0.2c0-0.1,0-0.1,0-0.2c0-0.1,0-0.1,0-0.2c0-0.1-0.1-0.1-0.1-0.2
				c0-0.1-0.1-0.1-0.2-0.1c-0.1,0-0.2,0-0.3,0c-0.1,0-0.2,0.1-0.4,0.1l-0.2-0.4c0.1-0.1,0.2-0.1,0.3-0.2s0.1-0.1,0.2-0.2
				c0-0.1,0-0.1,0-0.2c0-0.1,0-0.1-0.1-0.2c-0.1-0.1-0.2-0.3-0.3-0.3c-0.1,0-0.3,0-0.4,0c-0.1,0-0.1,0.1-0.2,0.1s-0.1,0.1-0.1,0.1
				c0,0.1,0,0.1-0.1,0.2s0,0.1,0,0.2c0,0.1,0,0.1,0,0.2c0,0-0.1,0.1-0.2,0.1L523.6,148.7z"/>
		</g>
		<line class="st43" x1="414.8" y1="193.6" x2="419.3" y2="194.6"/>
		<line class="st43" x1="415.3" y1="193.9" x2="417.1" y2="189.9"/>
		<line class="st43" x1="423" y1="191.5" x2="421.9" y2="189.2"/>
		<line class="st43" x1="430.6" y1="188" x2="429.6" y2="185.7"/>
		<line class="st43" x1="438.2" y1="184.5" x2="437.2" y2="182.2"/>
		<line class="st43" x1="445.9" y1="181" x2="444.8" y2="178.7"/>
		<line class="st43" x1="453.5" y1="177.5" x2="452.4" y2="175.2"/>
		<line class="st43" x1="461.1" y1="174" x2="460" y2="171.7"/>
		<line class="st43" x1="468.7" y1="170.5" x2="467.6" y2="168.2"/>
		<line class="st43" x1="476.3" y1="167" x2="475.3" y2="164.7"/>
		<line class="st43" x1="483.9" y1="163.5" x2="482.9" y2="161.2"/>
		<line class="st43" x1="491.6" y1="160" x2="490.5" y2="157.7"/>
		<line class="st43" x1="499.2" y1="156.5" x2="498.1" y2="154.2"/>
		<line class="st43" x1="506.8" y1="153" x2="505.7" y2="150.7"/>
		<line class="st43" x1="514.4" y1="149.5" x2="513.4" y2="147.2"/>
		<line class="st43" x1="522" y1="146" x2="521" y2="143.7"/>
		<line class="st43" x1="512" y1="145.1" x2="512.2" y2="140.5"/>
		<line class="st43" x1="512.2" y1="144.6" x2="507.9" y2="143.6"/>
	</g>
	<g>
		<path class="st8" d="M25.6,303.5c-9.4,0-17,7.6-17,17s7.6,17,17,17s17-7.6,17-17S35,303.5,25.6,303.5z M26.9,335.7v-1.2
			c0-0.8-0.6-1.4-1.4-1.4s-1.4,0.6-1.4,1.4v1.2c-7.3-0.6-13.2-6.5-13.8-13.9h1.2c0.8,0,1.4-0.6,1.4-1.4s-0.6-1.4-1.4-1.4h-1.2
			c0.7-7.3,6.5-13.1,13.8-13.8v1.1c0,0.8,0.6,1.4,1.4,1.4s1.4-0.6,1.4-1.4v-1.1c7.3,0.6,13.1,6.5,13.8,13.8h-1.2
			c-0.8,0-1.3,0.6-1.3,1.4s0.6,1.4,1.3,1.4h1.2C40.1,329.2,34.3,335.1,26.9,335.7z"/>
		<path class="st8" d="M33.2,312.2l-7.6,8c0,0,0,0,0,0c-0.1,0-0.2,0-0.3,0l-6.4-4.8c-0.4-0.3-1-0.2-1.4,0.2c-0.3,0.4-0.2,1,0.2,1.4
			l6.4,4.8c0.1,0.7,0.7,1.3,1.4,1.3c0.8,0,1.5-0.6,1.5-1.5c0,0,0-0.1,0-0.1l7.6-8c0.4-0.4,0.3-1,0-1.4
			C34.2,311.8,33.6,311.9,33.2,312.2z"/>
	</g>
	<g>
		<g>
			<path class="st8" d="M52.5,147.1L65,188.2l-31.7,9.6l-12.5-41.1l31.1-9.3 M53.6,145.4l-34.7,10.5l13.3,44l34.7-10.5L53.6,145.4
				L53.6,145.4z"/>
		</g>
		<g>
			<line class="st43" x1="30.4" y1="152.3" x2="43.8" y2="196.3"/>
			<line class="st47" x1="30.4" y1="152.3" x2="43.8" y2="196.3"/>
		</g>
		<g>
			<line class="st43" x1="42.1" y1="148.8" x2="55.4" y2="192.8"/>
			<line class="st47" x1="42.1" y1="148.8" x2="55.4" y2="192.8"/>
		</g>
		<line class="st43" x1="22.2" y1="166.6" x2="56.9" y2="156.1"/>
		<line class="st43" x1="25.6" y1="177.8" x2="60.3" y2="167.3"/>
		<line class="st43" x1="29" y1="188.9" x2="63.7" y2="178.4"/>
		<g class="st46">
			<path class="st8" d="M22.6,179l0.2,0.7c0,0.1,0,0.1,0,0.2c0,0.1-0.1,0.1-0.2,0.1l-1.3,0.4l0.8,2.7l-1.1,0.3l-0.8-2.7l-4.5,1.4
				c-0.1,0-0.2,0-0.3,0c-0.1,0-0.1-0.1-0.2-0.2l-0.3-0.6l3-8l1.2-0.4l2,6.5L22.6,179z M19.9,179.8l-1.3-4.2c0-0.1-0.1-0.3-0.1-0.4
				c0-0.1-0.1-0.3-0.1-0.5l-2.2,6.1L19.9,179.8z"/>
		</g>
		<g class="st46">
			<path class="st8" d="M48.2,200.3c-0.1-0.5-0.1-0.9,0-1.3c0.1-0.4,0.2-0.8,0.5-1.1s0.5-0.6,0.8-0.9s0.7-0.4,1.2-0.6
				c0.4-0.1,0.8-0.2,1.3-0.2c0.4,0,0.8,0.1,1.1,0.2c0.3,0.1,0.6,0.4,0.9,0.6s0.4,0.6,0.5,1c0.1,0.3,0.1,0.6,0.1,0.9
				c0,0.3-0.1,0.5-0.2,0.8c-0.1,0.2-0.2,0.4-0.4,0.6s-0.4,0.4-0.6,0.6c0.7,0,1.3,0.1,1.8,0.4c0.5,0.3,0.8,0.8,1,1.4
				c0.1,0.5,0.2,0.9,0.1,1.3s-0.2,0.8-0.4,1.2c-0.2,0.4-0.5,0.7-0.9,0.9c-0.4,0.3-0.8,0.5-1.3,0.6c-0.5,0.2-1,0.2-1.4,0.2
				c-0.4,0-0.8-0.1-1.1-0.3s-0.6-0.4-0.9-0.6c-0.3-0.3-0.5-0.6-0.8-0.9l0.5-0.4c0.1-0.1,0.3-0.2,0.4-0.2c0.1,0,0.3,0,0.4,0.1
				c0.1,0.1,0.2,0.3,0.4,0.4c0.2,0.1,0.3,0.3,0.5,0.4c0.2,0.1,0.5,0.2,0.7,0.3c0.3,0,0.6,0,1-0.1c0.3-0.1,0.7-0.3,0.9-0.5
				c0.2-0.2,0.4-0.4,0.5-0.6c0.1-0.2,0.2-0.5,0.2-0.7s0-0.5-0.1-0.7c-0.1-0.3-0.2-0.5-0.3-0.7c-0.1-0.2-0.3-0.4-0.6-0.5
				c-0.2-0.1-0.5-0.2-0.9-0.1c-0.4,0-0.8,0.1-1.3,0.3l-0.3-0.9c0.4-0.1,0.8-0.3,1.1-0.5c0.3-0.2,0.5-0.4,0.6-0.6
				c0.1-0.2,0.2-0.4,0.3-0.7s0-0.5-0.1-0.8c-0.1-0.3-0.2-0.5-0.4-0.7s-0.3-0.3-0.5-0.4s-0.4-0.1-0.7-0.1c-0.2,0-0.5,0-0.7,0.1
				s-0.5,0.2-0.7,0.3s-0.4,0.3-0.5,0.5c-0.1,0.2-0.2,0.4-0.3,0.6c-0.1,0.2-0.1,0.4-0.1,0.7c0,0.2,0,0.3-0.1,0.4
				c-0.1,0.1-0.2,0.1-0.4,0.2L48.2,200.3z"/>
		</g>
		<text transform="matrix(0.957 -0.2901 0.2901 0.957 38.2088 189.7822)" class="st8 st48 st49">?</text>
	</g>
</g>
</svg>
